<?xml version="1.0" encoding="UTF-8"?>
<svg version="1.1" xmlns="http://www.w3.org/2000/svg" width="679" height="679">
<path d="M0 0 C1.10294907 -0.00570007 2.20589813 -0.01140015 3.3422699 -0.01727295 C5.67275042 -0.0266753 8.00324396 -0.03323785 10.33374023 -0.03710938 C13.80933603 -0.0467045 17.28431093 -0.07772826 20.75976562 -0.109375 C36.14892439 -0.18240176 51.09046288 0.92124669 66.30859375 3.203125 C67.00910858 3.30790161 67.70962341 3.41267822 68.43136597 3.52062988 C72.05504086 4.0784583 75.65169045 4.73175363 79.24609375 5.453125 C80.30707275 5.66364502 81.36805176 5.87416504 82.46118164 6.09106445 C136.94933712 17.23901292 187.12428813 41.22204928 230.30859375 76.203125 C230.89769531 76.6765332 231.48679687 77.14994141 232.09375 77.63769531 C241.14314877 84.98147474 249.42629997 93.11941003 257.68359375 101.328125 C258.19415314 101.83332672 258.70471252 102.33852844 259.23074341 102.85903931 C266.050961 109.62487423 272.35330138 116.65330923 278.30859375 124.203125 C279.46992104 125.63942889 280.6313703 127.07563415 281.79296875 128.51171875 C293.75360685 143.54476487 304.18059413 159.45579837 313.30419922 176.35888672 C314.26456044 178.12227239 315.25658247 179.86830438 316.25 181.61328125 C337.00723684 218.80857232 348.35027793 261.11311512 353.30859375 303.203125 C353.39447754 303.92169174 353.48036133 304.64025848 353.56884766 305.38059998 C354.29149464 311.89482386 354.48466978 318.34358475 354.51171875 324.89453125 C354.51741882 325.99748032 354.5231189 327.10042938 354.5289917 328.23680115 C354.53839405 330.56728167 354.5449566 332.89777521 354.54882812 335.22827148 C354.55842325 338.70386728 354.58944701 342.17884218 354.62109375 345.65429688 C354.69412051 361.04345564 353.59047206 375.98499413 351.30859375 391.203125 C351.15142883 392.25389725 351.15142883 392.25389725 350.99108887 393.32589722 C350.43326045 396.94957211 349.77996512 400.5462217 349.05859375 404.140625 C348.74281372 405.73209351 348.74281372 405.73209351 348.4206543 407.35571289 C337.27270583 461.84386837 313.28966947 512.01881938 278.30859375 555.203125 C277.59848145 556.08677734 277.59848145 556.08677734 276.87402344 556.98828125 C269.53024401 566.03768002 261.39230872 574.32083122 253.18359375 582.578125 C252.67839203 583.08868439 252.17319031 583.59924377 251.65267944 584.12527466 C244.88684452 590.94549225 237.85840952 597.24783263 230.30859375 603.203125 C228.87228986 604.36445229 227.4360846 605.52590155 226 606.6875 C210.96695388 618.6481381 195.05592038 629.07512538 178.15283203 638.19873047 C176.38944636 639.15909169 174.64341437 640.15111372 172.8984375 641.14453125 C135.70314643 661.90176809 93.39860363 673.24480918 51.30859375 678.203125 C50.59002701 678.28900879 49.87146027 678.37489258 49.13111877 678.46337891 C42.61689489 679.18602589 36.168134 679.37920103 29.6171875 679.40625 C28.51423843 679.41195007 27.41128937 679.41765015 26.2749176 679.42352295 C23.94443708 679.4329253 21.61394354 679.43948785 19.28344727 679.44335938 C15.80785147 679.4529545 12.33287657 679.48397826 8.85742188 679.515625 C-6.53173689 679.58865176 -21.47327538 678.48500331 -36.69140625 676.203125 C-37.7421785 676.04596008 -37.7421785 676.04596008 -38.81417847 675.88562012 C-42.43785336 675.3277917 -46.03450295 674.67449637 -49.62890625 673.953125 C-51.22037476 673.63734497 -51.22037476 673.63734497 -52.84399414 673.31518555 C-107.33214962 662.16723708 -157.50710063 638.18420072 -200.69140625 603.203125 C-201.57505859 602.4930127 -201.57505859 602.4930127 -202.4765625 601.76855469 C-211.52596127 594.42477526 -219.80911247 586.28683997 -228.06640625 578.078125 C-228.83224533 577.32032242 -228.83224533 577.32032242 -229.61355591 576.54721069 C-236.4337735 569.78137577 -242.73611388 562.75294077 -248.69140625 555.203125 C-249.85273354 553.76682111 -251.0141828 552.33061585 -252.17578125 550.89453125 C-264.13641935 535.86148513 -274.56340663 519.95045163 -283.68701172 503.04736328 C-284.64737294 501.28397761 -285.63939497 499.53794562 -286.6328125 497.79296875 C-307.39004934 460.59767768 -318.73309043 418.29313488 -323.69140625 376.203125 C-323.77729004 375.48455826 -323.86317383 374.76599152 -323.95166016 374.02565002 C-324.67430714 367.51142614 -324.86748228 361.06266525 -324.89453125 354.51171875 C-324.90308136 352.85729515 -324.90308136 352.85729515 -324.9118042 351.16944885 C-324.92120655 348.83896833 -324.9277691 346.50847479 -324.93164062 344.17797852 C-324.94123575 340.70238272 -324.97225951 337.22740782 -325.00390625 333.75195312 C-325.07693301 318.36279436 -323.97328456 303.42125587 -321.69140625 288.203125 C-321.58662964 287.50261017 -321.48185303 286.80209534 -321.37390137 286.08035278 C-320.81607295 282.45667789 -320.16277762 278.8600283 -319.44140625 275.265625 C-319.23088623 274.204646 -319.02036621 273.14366699 -318.8034668 272.05053711 C-307.65551833 217.56238163 -283.67248197 167.38743062 -248.69140625 124.203125 C-247.98129395 123.31947266 -247.98129395 123.31947266 -247.25683594 122.41796875 C-239.91305651 113.36856998 -231.77512122 105.08541878 -223.56640625 96.828125 C-223.06120453 96.31756561 -222.55600281 95.80700623 -222.03549194 95.28097534 C-215.26965702 88.46075775 -208.24122202 82.15841737 -200.69140625 76.203125 C-199.25510236 75.04179771 -197.8188971 73.88034845 -196.3828125 72.71875 C-181.34976638 60.7581119 -165.43873288 50.33112462 -148.53564453 41.20751953 C-146.77225886 40.24715831 -145.02622687 39.25513628 -143.28125 38.26171875 C-106.08595893 17.50448191 -63.78141613 6.16144082 -21.69140625 1.203125 C-20.97283951 1.11724121 -20.25427277 1.03135742 -19.51393127 0.94287109 C-12.99970739 0.22022411 -6.5509465 0.02704897 0 0 Z " fill="#FEC300" transform="translate(324.69140625,-0.203125)"/>
<path d="M0 0 C1.36121112 0.00028276 2.72242239 0.0001224 4.08363342 -0.0004425 C7.74403599 -0.000727 11.40440515 0.00511308 15.06480002 0.01213145 C18.90312765 0.01842329 22.74145622 0.01897337 26.57978821 0.02015686 C33.83261929 0.0232531 41.08543512 0.03144326 48.33825952 0.04150635 C56.60195865 0.05272078 64.86565855 0.05819132 73.12936342 0.06320179 C90.11400172 0.07362747 107.09862522 0.09119354 124.08325195 0.11352539 C122.4272508 4.32455516 120.54558078 8.38763647 118.5559082 12.44946289 C118.21107391 13.15722366 117.86623962 13.86498444 117.51095581 14.5941925 C116.77308367 16.10834976 116.03445483 17.62213845 115.2951355 19.1355896 C113.35897446 23.09916 111.4281108 27.06530829 109.49731445 31.03149414 C109.1149614 31.81665909 108.73260834 32.60182404 108.33866882 33.41078186 C104.79703194 40.68941189 101.29937039 47.9884706 97.83544922 55.30444336 C94.03584299 63.29949802 90.05685412 71.20406887 86.08325195 79.11352539 C71.81676838 107.49779332 71.81676838 107.49779332 58.03442383 136.11938477 C57.07562656 138.12951211 56.0792343 140.1215607 55.08325195 142.11352539 C32.64325195 142.11352539 10.20325195 142.11352539 -12.91674805 142.11352539 C-11.53759356 138.66563918 -10.15177243 135.47522775 -8.4831543 132.18383789 C-7.76579102 130.76180054 -7.76579102 130.76180054 -7.03393555 129.31103516 C-6.52088867 128.29710693 -6.0078418 127.28317871 -5.47924805 126.23852539 C0.0354181 115.27480433 5.37096793 104.23520298 10.63745117 93.15063477 C13.29422695 87.56970085 15.97065879 81.99819611 18.64575195 76.42602539 C19.15879883 75.35618408 19.6718457 74.28634277 20.20043945 73.18408203 C20.67868164 72.18755615 21.15692383 71.19103027 21.6496582 70.16430664 C22.28303101 68.84426636 22.28303101 68.84426636 22.92919922 67.49755859 C23.96365097 65.36059618 25.01933724 63.23591356 26.08325195 61.11352539 C19.71488257 61.18094892 13.3471068 61.27091697 6.97924805 61.37597656 C4.8165596 61.40906741 2.65378808 61.43714775 0.4909668 61.45996094 C-2.63227478 61.49379965 -5.75476582 61.5461289 -8.87768555 61.60180664 C-9.83226654 61.60819656 -10.78684753 61.61458649 -11.77035522 61.62117004 C-27.04209821 61.9496764 -39.42574735 68.60740379 -50.1862793 79.20336914 C-61.17380951 90.91397002 -65.70107085 104.88973274 -65.51074219 120.68701172 C-64.79606471 137.27103093 -56.96625448 151.85849191 -44.91674805 163.11352539 C-31.14444217 173.50734353 -18.122543 176.40398136 -1.13664627 176.38792038 C1.16335568 176.3869387 3.46291063 176.40009186 5.7628479 176.41690063 C12.29588305 176.46265025 18.82887027 176.48769994 25.36206055 176.49438477 C67.6084489 176.55695765 99.26541428 184.73357452 131.3527832 213.30102539 C133.08325195 215.11352539 133.08325195 215.11352539 133.08325195 217.11352539 C133.74325195 217.11352539 134.40325195 217.11352539 135.08325195 217.11352539 C151.28454295 234.99926063 161.6687309 258.38119311 165.08325195 282.11352539 C165.25381104 282.90927979 165.42437012 283.70503418 165.60009766 284.52490234 C168.13575025 298.11031134 166.06558137 312.77665973 163.08325195 326.11352539 C162.88989258 327.1305957 162.6965332 328.14766602 162.49731445 329.19555664 C156.43217623 357.98527118 135.90630268 385.44645339 111.55200195 401.48852539 C91.84240276 413.97092329 69.20486008 422.34503648 45.71777344 422.22705078 C44.93617355 422.22719681 44.15457367 422.22734283 43.34928894 422.22749329 C40.80094493 422.22680422 38.25267673 422.21905966 35.7043457 422.21118164 C33.92358948 422.20931388 32.14283273 422.20789167 30.36207581 422.20689392 C25.7014725 422.20309696 21.04090093 422.19329111 16.38031006 422.18218994 C11.61397735 422.17191482 6.84763945 422.16738329 2.08129883 422.16235352 C-7.25139732 422.15166602 -16.58407003 422.13462392 -25.91674805 422.11352539 C-24.61664257 418.13564962 -23.19791246 414.3913807 -21.37768555 410.62133789 C-20.88357178 409.59427734 -20.38945801 408.5672168 -19.88037109 407.5090332 C-19.35612549 406.42976563 -18.83187988 405.35049805 -18.29174805 404.23852539 C-17.75267822 403.12316406 -17.2136084 402.00780273 -16.65820312 400.85864258 C-10.33162177 387.79572964 -3.82715743 374.8775005 3.08325195 362.11352539 C5.00234375 362.09165161 5.00234375 362.09165161 6.96020508 362.06933594 C11.7838707 362.01062166 16.60710446 361.93340517 21.43041992 361.85107422 C23.50358991 361.81816421 25.57684222 361.7900312 27.65014648 361.76708984 C52.52923019 361.6319116 52.52923019 361.6319116 75.08325195 352.11352539 C76.48704102 351.2144043 76.48704102 351.2144043 77.91918945 350.29711914 C90.92809334 341.47601308 99.30591358 328.47977817 103.02075195 313.23852539 C106.20194127 295.31182333 103.57466492 278.36748766 93.08325195 263.11352539 C81.8419825 248.56716439 67.08524471 240.72540868 49.08325195 238.11352539 C46.9386565 238.01801294 44.79170352 237.96846574 42.64501953 237.95581055 C41.38542923 237.9455484 40.12583893 237.93528625 38.82807922 237.92471313 C38.1610177 237.92127522 37.49395618 237.9178373 36.80668068 237.9142952 C34.68798101 237.90236374 32.56947251 237.8828687 30.45085144 237.86117554 C24.4290535 237.80009371 18.40727154 237.74600354 12.38525391 237.7121582 C-28.29351403 237.47063765 -64.05377474 230.97649869 -93.9440918 201.08618164 C-95.68374547 199.15004943 -97.30490912 197.1573662 -98.91674805 195.11352539 C-99.6953418 194.1712207 -100.47393555 193.22891602 -101.27612305 192.25805664 C-121.60095553 167.24886383 -129.34584296 136.62794177 -126.72192383 104.74633789 C-124.348831 81.99570559 -114.2672144 60.70844501 -99.91674805 43.11352539 C-99.28897461 42.29754883 -98.66120117 41.48157227 -98.0144043 40.64086914 C-79.56390879 18.17145382 -48.68756521 3.3941247 -20.00627136 0.57301331 C-13.33471587 -0.00762734 -6.69280546 -0.01923684 0 0 Z " fill="#050607" transform="translate(439.916748046875,96.886474609375)"/>
<path d="M0 0 C22.44 0 44.88 0 68 0 C70.64 5.28 73.28 10.56 76 16 C78.06490817 20.11839142 78.06490817 20.11839142 80.13093567 24.23622131 C82.03094107 28.02228306 83.92837912 31.80963029 85.82592773 35.59692383 C86.81087669 37.56180722 87.79654484 39.52633027 88.78295898 41.49047852 C94.68945774 53.25327915 100.49359403 65.05604872 106.14839172 76.94203186 C109.83340702 84.68012487 113.6347272 92.35046151 117.5 100 C123.341899 111.61352206 129.02480803 123.29500523 134.59375 135.04199219 C137.27495295 140.68182812 139.98305155 146.30878438 142.6875 151.9375 C143.71226229 154.07160368 144.73700401 156.20571724 145.76171875 158.33984375 C146.50778828 159.8932408 147.25387199 161.44663104 148 163 C148.66 163 149.32 163 150 163 C150.42297363 162.15405273 150.84594727 161.30810547 151.28173828 160.43652344 C157.85449219 147.29101562 164.42724609 134.14550781 171 121 C171.74531982 121.30107666 172.49063965 121.60215332 173.25854492 121.91235352 C185.26210935 126.67465466 197.24888577 129.99501711 210 132 C211.45019531 132.26683594 211.45019531 132.26683594 212.9296875 132.5390625 C216.74057595 133.11118061 220.52976558 133.35042107 224.375 133.5625 C225.11105469 133.60568359 225.84710938 133.64886719 226.60546875 133.69335938 C228.40348068 133.79843799 230.20171958 133.89962093 232 134 C230.62356218 137.54306772 229.10017455 140.96919028 227.4453125 144.390625 C226.92300049 145.4719873 226.40068848 146.55334961 225.86254883 147.66748047 C225.28915771 148.84971191 224.7157666 150.03194336 224.125 151.25 C223.51383939 152.51314652 222.90275771 153.77633124 222.29174805 155.03955078 C216.39244766 167.22596479 210.44635256 179.38963408 204.50335693 191.55477905 C199.1503911 202.51302428 193.80966184 213.47558029 188.59692383 224.50146484 C184.85377418 232.39518178 180.92143587 240.19390877 177 248 C176.26020362 249.47352618 175.52045792 250.94707782 174.78076172 252.4206543 C174.41050873 253.15821457 174.04025574 253.89577484 173.65878296 254.65568542 C172.16789528 257.62630514 170.6779219 260.59738278 169.18823242 263.56860352 C168.42589533 265.08815246 167.66285342 266.60734798 166.89916992 268.1262207 C165.77596642 270.36056042 164.6553111 272.59616192 163.53515625 274.83203125 C163.19355972 275.51006302 162.8519632 276.18809479 162.50001526 276.88667297 C161.15868458 279.56901215 159.94994083 282.15017751 159 285 C152.73 285 146.46 285 140 285 C132.71251483 271.46609898 125.9171439 257.73401385 119.24243164 243.89135742 C115.63306614 236.40787206 111.98905206 228.94578565 108.26013184 221.52111816 C103.06047101 211.15358157 97.97810183 200.72778328 92.875 190.3125 C92.04246704 188.6143364 92.04246704 188.6143364 91.19311523 186.88186646 C84.38163541 172.98703135 77.60654538 159.07646299 70.91040039 145.12573242 C66.11933264 135.17709536 61.17339985 125.30813378 56.21548462 115.44195557 C51.15540007 105.37081803 46.18473959 95.26771716 41.39770508 85.06298828 C37.98070487 76.37763442 37.98070487 76.37763442 32 70 C31.89365234 71.17949219 31.89365234 71.17949219 31.78515625 72.3828125 C30.72287888 77.27668736 28.64170384 81.39780865 26.4375 85.875 C25.95861328 86.86242187 25.47972656 87.84984375 24.98632812 88.8671875 C20.04392573 99.01310035 14.96680547 109.0932106 9.90161133 119.17822266 C6.06106743 126.8315585 2.284979 134.50817526 -1.375 142.25 C-6.47917214 153.04303273 -11.83480252 163.7054292 -17.19219971 174.37414551 C-22.23964304 184.42952389 -27.20795211 194.5126557 -32.01953125 204.68359375 C-35.86185792 212.7795053 -39.87423017 220.78749147 -43.90182495 228.79238892 C-48.43705618 237.80991332 -52.83311089 246.88343555 -57.14599609 256.0090332 C-60.32971966 262.70511122 -63.70198899 269.27804261 -67.27270508 275.77612305 C-68.97750227 278.90562374 -70.12736551 281.50946202 -71 285 C-93.44 285 -115.88 285 -139 285 C-137.75955971 281.27867914 -136.73789409 278.22641007 -135.01977539 274.82836914 C-134.63456223 274.06128128 -134.24934906 273.29419342 -133.85246277 272.50386047 C-133.43837662 271.68918808 -133.02429047 270.87451569 -132.59765625 270.03515625 C-132.16435501 269.17411789 -131.73105377 268.31307953 -131.28462219 267.4259491 C-130.35967438 265.58843126 -129.43302591 263.75176865 -128.50482178 261.91589355 C-126.08143963 257.12163537 -123.67131689 252.32072861 -121.26171875 247.51953125 C-120.79187561 246.58378265 -120.32203247 245.64803406 -119.83795166 244.68392944 C-116.60774218 238.24025588 -113.44541818 231.77155048 -110.375 225.25 C-104.84427909 213.51744758 -98.99989763 201.94203841 -93.16162109 190.36035156 C-88.42321758 180.94463237 -83.81293038 171.4754336 -79.28105164 161.95860291 C-73.87642661 150.61832421 -68.34687642 139.33988033 -62.8125 128.0625 C-61.99903107 126.40329529 -61.99903107 126.40329529 -61.16912842 124.71057129 C-54.22369355 110.54554299 -47.23356181 96.4046471 -40.14929199 82.30856323 C-35.76032255 73.57322892 -31.47997126 64.79407736 -27.30053711 55.95654297 C-22.36842387 45.57692492 -17.18716747 35.32100413 -12.01196289 25.06103516 C-11.65975677 24.36085266 -11.30755066 23.66067017 -10.94467163 22.93927002 C-10.29526767 21.64841486 -9.64421311 20.35838761 -8.99087524 19.06951904 C-5.82861419 12.77884584 -2.95698483 6.40680047 0 0 Z " fill="#050607" transform="translate(199,234)"/>
<path d="M0 0 C2.475 0.495 2.475 0.495 5 1 C5 1.66 5 2.32 5 3 C5.86625 3.2475 6.7325 3.495 7.625 3.75 C11 5 11 5 13.72265625 6.9375 C17.32763605 9.20618812 20.70292698 10.34240138 24.8125 11.25 C25.95537476 11.50583862 25.95537476 11.50583862 27.12133789 11.7668457 C36.06798587 13.53490541 45.01331758 13.26208502 54.08984375 13.04296875 C57.81312305 12.96775099 61.39302124 13.08312046 65.09375 13.48828125 C73.22485519 14.33376419 81.39868779 14.06801153 89.5625 14 C92.81379835 13.97343555 96.06504075 13.95348631 99.31640625 13.9375 C100.05903214 13.92920166 100.80165802 13.92090332 101.56678772 13.91235352 C106.77448835 13.88724417 106.77448835 13.88724417 109 15 C112.01119812 15.52235069 115.03073472 15.96026712 118.0546875 16.40234375 C120.72714008 16.94463187 122.65560123 17.64659105 125 19 C125 19.66 125 20.32 125 21 C117.97481148 20.18940132 117.97481148 20.18940132 114.48997498 19.51231384 C106.57082083 17.98439272 98.82476027 17.70543919 90.79448128 17.69503975 C88.47524569 17.6913099 86.15641327 17.67440906 83.83726501 17.65428162 C77.25267086 17.59948627 70.66802129 17.5682706 64.08325195 17.54370117 C60.0297679 17.52767992 55.97657697 17.4973221 51.92324638 17.45893669 C50.39613428 17.44742523 48.86896952 17.44135758 47.34181404 17.44125557 C29.2282893 17.43960606 13.36363772 14.05285545 0 1 C0 0.67 0 0.34 0 0 Z " fill="#FBC71A" transform="translate(392,257)"/>
<path d="M0 0 C40.59 0 81.18 0 123 0 C123 0.66 123 1.32 123 2 C123.99 2.495 123.99 2.495 125 3 C82.76 3 40.52 3 -3 3 C-2.01 2.67 -1.02 2.34 0 2 C0 1.34 0 0.68 0 0 Z " fill="#E5B217" transform="translate(439,94)"/>
<path d="M0 0 C4.27750385 1.49106888 5.39347545 4.03814285 7.3125 8 C7.84488281 9.0725 8.37726563 10.145 8.92578125 11.25 C9.28027344 12.1575 9.63476562 13.065 10 14 C9.67 14.66 9.34 15.32 9 16 C6 14 6 14 5.26953125 11.8359375 C5.11871094 11.02382813 4.96789062 10.21171875 4.8125 9.375 C4.65394531 8.55773437 4.49539062 7.74046875 4.33203125 6.8984375 C4.22246094 6.27195312 4.11289063 5.64546875 4 5 C3.01 5 2.02 5 1 5 C0.81244141 5.83724609 0.81244141 5.83724609 0.62109375 6.69140625 C-0.05485573 9.20389771 -0.95410063 11.52909929 -1.9375 13.9375 C-2.27652344 14.77152344 -2.61554688 15.60554688 -2.96484375 16.46484375 C-3.30644531 17.30144531 -3.64804688 18.13804687 -4 19 C-4.33257812 19.87011719 -4.66515625 20.74023438 -5.0078125 21.63671875 C-6 24 -6 24 -7.9375 26.875 C-10.13216091 30.2002438 -11.51234435 33.31628125 -13 37 C-13.33 37.66 -13.66 38.32 -14 39 C-14.66 39 -15.32 39 -16 39 C-16.12375 39.98806641 -16.12375 39.98806641 -16.25 40.99609375 C-17.25392997 45.01704244 -19.08283804 48.40581521 -21 52.0625 C-21.73291336 53.46810482 -22.46220888 54.87560324 -23.1875 56.28515625 C-23.51105469 56.90269775 -23.83460938 57.52023926 -24.16796875 58.15649414 C-25.03714244 60.08229536 -25.54927312 61.93957493 -26 64 C-26.66 64 -27.32 64 -28 64 C-28.33 64.99 -28.66 65.98 -29 67 C-29.66 67 -30.32 67 -31 67 C-29.44070727 61.77236449 -27.17338305 57.10417471 -24.7109375 52.26171875 C-24.28881989 51.42268509 -23.86670227 50.58365143 -23.43179321 49.7191925 C-22.0833409 47.04001966 -20.7295891 44.36357462 -19.375 41.6875 C-11.76823287 26.63447763 -11.76823287 26.63447763 -4.4140625 11.45703125 C-4.08087006 10.75954269 -3.74767761 10.06205414 -3.40438843 9.34342957 C-1.96268153 6.27478306 -0.62531387 3.34654775 0 0 Z " fill="#F2BC1D" transform="translate(231,304)"/>
<path d="M0 0 C21.78 0 43.56 0 66 0 C66 0.99 66 1.98 66 3 C44.55 3 23.1 3 1 3 C0.67 2.01 0.34 1.02 0 0 Z " fill="#DFA819" transform="translate(428,239)"/>
<path d="M0 0 C1.00969849 0.0028299 2.01939697 0.00565979 3.05969238 0.00857544 C6.25866967 0.0196972 9.4573585 0.04478687 12.65625 0.0703125 C14.83593343 0.08035265 17.01562129 0.08947668 19.1953125 0.09765625 C24.51572205 0.11961025 29.83596541 0.15300732 35.15625 0.1953125 C34.58280063 3.06255936 34.2947985 4.056764 32.15625 6.1953125 C31.66125 3.7203125 31.66125 3.7203125 31.15625 1.1953125 C25.42665883 1.26432994 19.69778764 1.35236555 13.96875 1.45776367 C12.02124032 1.49094515 10.07363603 1.51899807 8.12597656 1.54174805 C5.32055485 1.57541884 2.51599472 1.62774077 -0.2890625 1.68359375 C-1.58784836 1.69317863 -1.58784836 1.69317863 -2.91287231 1.70295715 C-7.97665807 1.82513374 -11.40859067 2.49895185 -15.84375 5.1953125 C-18.33771503 6.56297074 -20.12076541 7.24883869 -22.95703125 7.796875 C-28.08310353 9.24105432 -31.37234062 12.86624679 -35.09375 16.5078125 C-36.15335937 17.50458008 -36.15335937 17.50458008 -37.234375 18.52148438 C-40.75923546 21.89613771 -43.33953136 24.99180264 -45.84375 29.1953125 C-46.83375 29.1953125 -47.82375 29.1953125 -48.84375 29.1953125 C-44.6912885 17.08217351 -32.01164748 8.50896604 -20.98828125 2.984375 C-13.89254127 0.37355628 -7.49211889 -0.08015094 0 0 Z " fill="#F5BC19" transform="translate(430.84375,157.8046875)"/>
<path d="M0 0 C1.11784882 0.00141495 2.23569763 0.0028299 3.38742065 0.00428772 C6.92237133 0.00984003 10.45725629 0.02238346 13.9921875 0.03515625 C16.40364491 0.04017742 18.81510333 0.04473924 21.2265625 0.04882812 C27.10679287 0.05979379 32.98698549 0.07648372 38.8671875 0.09765625 C28.04966285 7.30933935 8.99879894 4.50375 -3.4699707 4.62939453 C-6.49707161 4.66296856 -9.52384567 4.70804622 -12.55078125 4.75390625 C-13.48399704 4.75918335 -14.41721283 4.76446045 -15.37870789 4.76989746 C-16.23753067 4.78331177 -17.09635345 4.79672607 -17.98120117 4.81054688 C-18.73696945 4.81783813 -19.49273773 4.82512939 -20.27140808 4.8326416 C-22.37792993 4.94252092 -22.37792993 4.94252092 -24.1328125 7.09765625 C-24.1328125 5.44765625 -24.1328125 3.79765625 -24.1328125 2.09765625 C-17.32193577 -1.30778212 -7.42306336 -0.03600973 0 0 Z " fill="#E2B120" transform="translate(465.1328125,454.90234375)"/>
<path d="M0 0 C2.475 0.495 2.475 0.495 5 1 C5 1.66 5 2.32 5 3 C5.86625 3.2475 6.7325 3.495 7.625 3.75 C11 5 11 5 13.5 6.9375 C17.72509063 10.00097541 23.027146 10.3966717 28.05078125 11.2890625 C29.02402344 11.52367187 29.99726563 11.75828125 31 12 C31.33 12.66 31.66 13.32 32 14 C35.33049032 15.11016344 37.88945666 15.15852609 41.39916992 15.20532227 C42.04334366 15.21522186 42.6875174 15.22512146 43.35121155 15.23532104 C45.4775934 15.26687467 47.60399758 15.29166905 49.73046875 15.31640625 C51.20592322 15.33698109 52.68137186 15.3579777 54.15681458 15.37937927 C58.03819051 15.43454526 61.91961915 15.48397862 65.80108643 15.53222656 C69.76262091 15.58248158 73.72407894 15.63814676 77.68554688 15.69335938 C85.45696649 15.80087399 93.22844972 15.90233377 101 16 C101 16.33 101 16.66 101 17 C92.35845148 17.06994615 83.71702403 17.12303522 75.07526112 17.15543652 C71.06122042 17.17099858 67.0473754 17.19206052 63.03344727 17.22631836 C59.14953922 17.25925372 55.2658177 17.27692384 51.38178062 17.28463173 C49.91042844 17.29011466 48.43908481 17.3008186 46.96781349 17.31719017 C28.91981582 17.50977287 13.25031368 13.94216685 0 1 C0 0.67 0 0.34 0 0 Z " fill="#D19F17" transform="translate(392,257)"/>
<path d="M0 0 C45.54 0 91.08 0 138 0 C136 5 136 5 134 7 C134 5.35 134 3.7 134 2 C89.78 1.67 45.56 1.34 0 1 C0 0.67 0 0.34 0 0 Z " fill="#180B00" transform="translate(426,97)"/>
<path d="M0 0 C12.58253133 1.63035848 12.58253133 1.63035848 17.375 3.5625 C21.00940124 5.00372808 24.14010875 5.50874111 28 6 C29.58598957 6.48550701 31.1719691 6.97104698 32.7578125 7.45703125 C38.07976937 8.74579781 43.57557545 9.29279347 49 10 C49 10.33 49 10.66 49 11 C52.3 11.33 55.6 11.66 59 12 C59 12.33 59 12.66 59 13 C40.51587983 13.67993358 15.54815512 12.10131968 0 1 C0 0.67 0 0.34 0 0 Z " fill="#FCCA14" transform="translate(372,355)"/>
<path d="M0 0 C2.61877441 -0.38095093 2.61877441 -0.38095093 5.97851562 -0.38818359 C7.23321655 -0.39764008 8.48791748 -0.40709656 9.78063965 -0.4168396 C11.1558463 -0.41147007 12.53105008 -0.40531717 13.90625 -0.3984375 C15.31107739 -0.40045759 16.71590375 -0.40336849 18.12072754 -0.40713501 C21.06642633 -0.41156147 24.01185241 -0.40511731 26.95751953 -0.39111328 C30.73750769 -0.37402077 34.51685689 -0.38386029 38.29682159 -0.40183067 C41.19814894 -0.41266008 44.09932426 -0.40922616 47.00065613 -0.4014473 C48.39454727 -0.39944293 49.78845213 -0.40191286 51.18232727 -0.40888596 C53.12871037 -0.41648565 55.07514172 -0.40285287 57.02148438 -0.38818359 C58.68455627 -0.38460342 58.68455627 -0.38460342 60.38122559 -0.38095093 C61.24542114 -0.25523712 62.1096167 -0.12952332 63 0 C63.99 1.485 63.99 1.485 65 3 C42.89 3 20.78 3 -2 3 C-1.34 2.01 -0.68 1.02 0 0 Z " fill="#EAB71A" transform="translate(202,231)"/>
<path d="M0 0 C0.99 0.33 1.98 0.66 3 1 C1.96552734 2.32837891 1.96552734 2.32837891 0.91015625 3.68359375 C-11.05194296 19.32337486 -18.32554646 35.17478554 -24 54 C-24.33 54 -24.66 54 -25 54 C-25.5715848 43.85966232 -23.28592794 36.69386194 -18.0859375 28.04296875 C-17.01254754 26.02360563 -16.45158975 24.23286041 -16 22 C-15.34 22 -14.68 22 -14 22 C-13.34 20.02 -12.68 18.04 -12 16 C-11.34 16 -10.68 16 -10 16 C-9.87625 15.401875 -9.7525 14.80375 -9.625 14.1875 C-9 12 -9 12 -7 9 C-6.34 9 -5.68 9 -5 9 C-4.9175 8.071875 -4.835 7.14375 -4.75 6.1875 C-4 3 -4 3 -2.125 1.0625 C-1.42375 0.711875 -0.7225 0.36125 0 0 Z " fill="#EEBF22" transform="translate(340,136)"/>
<path d="M0 0 C2.52093298 0.311712 5.0417457 0.62434902 7.5625 0.9375 C8.26697266 1.02451172 8.97144531 1.11152344 9.69726562 1.20117188 C10.74624023 1.33168945 10.74624023 1.33168945 11.81640625 1.46484375 C12.45006104 1.543396 13.08371582 1.62194824 13.73657227 1.70288086 C15.56790463 1.94327903 17.39450965 2.21951533 19.21908569 2.50672913 C22.77554206 2.97071646 26.1745405 3.15003186 29.75805664 3.18945312 C31.0595314 3.20617065 32.36100616 3.22288818 33.70191956 3.2401123 C34.73039599 3.25013527 34.73039599 3.25013527 35.77964973 3.26036072 C37.94524992 3.28159409 40.11071303 3.30859603 42.27622986 3.33703613 C47.65106231 3.40646107 53.02599445 3.46615802 58.40093994 3.52606201 C62.95378506 3.57716671 67.50655485 3.63203584 72.05929375 3.69187927 C74.18518146 3.71828453 76.31107713 3.73919576 78.43702698 3.7598877 C80.38451088 3.78496399 80.38451088 3.78496399 82.37133789 3.81054688 C83.5093837 3.82307495 84.6474295 3.83560303 85.81996155 3.84851074 C88.95264247 3.997744 91.92077814 4.41866984 95 5 C95 5.33 95 5.66 95 6 C85.23684295 6.09333519 75.47384322 6.16408322 65.71033478 6.20724869 C61.17505454 6.22798259 56.64008308 6.25603503 52.10498047 6.30175781 C47.71530697 6.34572937 43.32592743 6.36924334 38.93605042 6.37950897 C37.27457562 6.38680955 35.613114 6.40106081 33.95176697 6.42292023 C22.83425166 6.56316987 12.57388251 5.66514116 2 2 C1.34 1.34 0.68 0.68 0 0 Z " fill="#F9B91B" transform="translate(400,330)"/>
<path d="M0 0 C0.66 0.99 1.32 1.98 2 3 C1.67 3.99 1.34 4.98 1 6 C0.34 6 -0.32 6 -1 6 C-0.7068109 18.03047228 -0.27506877 29.37016397 3 41 C3.40728974 42.76823352 3.80431209 44.53888737 4.1875 46.3125 C4.455625 47.529375 4.72375 48.74625 5 50 C4.01 50.495 4.01 50.495 3 51 C2.20324985 49.14801206 1.41285639 47.2932889 0.625 45.4375 C-0.03628906 43.88869141 -0.03628906 43.88869141 -0.7109375 42.30859375 C-3.36981237 35.48414824 -4.38604817 29.57391259 -4.375 22.3125 C-4.37628906 21.43561523 -4.37757813 20.55873047 -4.37890625 19.65527344 C-4.26256473 12.47647286 -2.99488069 6.57804151 0 0 Z " fill="#ECBB20" transform="translate(378,193)"/>
<path d="M0 0 C0.33 0 0.66 0 1 0 C1 1.65 1 3.3 1 5 C0.34 5.33 -0.32 5.66 -1 6 C-1.70344635 7.68324662 -2.40494619 9.36734928 -3.09375 11.05664062 C-4.60797485 14.30373918 -6.75970496 16.97355245 -9 19.75 C-9.47840332 20.35054199 -9.95680664 20.95108398 -10.44970703 21.56982422 C-16.57142319 29.1185418 -23.31801761 36.02512481 -31 42 C-32.32 41.34 -33.64 40.68 -35 40 C-34.11699219 39.27296875 -33.23398437 38.5459375 -32.32421875 37.796875 C-19.30634965 26.95016989 -7.66416519 15.32833038 0 0 Z " fill="#F1BA19" transform="translate(590,455)"/>
<path d="M0 0 C0 0.66 0 1.32 0 2 C-0.71027344 2.20496094 -1.42054688 2.40992188 -2.15234375 2.62109375 C-3.53099609 3.02521484 -3.53099609 3.02521484 -4.9375 3.4375 C-5.85402344 3.70433594 -6.77054687 3.97117187 -7.71484375 4.24609375 C-9.9402493 4.79026051 -9.9402493 4.79026051 -11 6 C-13.77022361 6.06515032 -16.51414654 6.0649949 -19.28344727 6.02172852 C-20.15166107 6.01212097 -21.01987488 6.00251343 -21.91439819 5.99261475 C-24.79848024 5.95950202 -27.68241654 5.91921678 -30.56640625 5.87890625 C-32.56037372 5.85461711 -34.55434666 5.83077297 -36.54832458 5.80735779 C-41.80750739 5.74439677 -47.06659393 5.67536439 -52.32568359 5.60510254 C-57.68778076 5.53452734 -63.04994642 5.46964577 -68.41210938 5.40429688 C-78.94148151 5.27512973 -89.47076077 5.13955384 -100 5 C-100 4.67 -100 4.34 -100 4 C-98.53660187 3.98786972 -98.53660187 3.98786972 -97.04364014 3.97549438 C-87.80552873 3.8976802 -78.56755824 3.80985499 -69.32963181 3.71247292 C-64.58143733 3.66273472 -59.83326271 3.61640451 -55.08496094 3.578125 C-50.49422707 3.54098599 -45.9036691 3.49455242 -41.31308746 3.44193649 C-39.57023484 3.42354333 -37.82734474 3.4083811 -36.08443451 3.39665604 C-25.86574994 3.32551367 -15.87044402 3.14981119 -5.93231201 0.43521118 C-4 0 -4 0 0 0 Z " fill="#C79018" transform="translate(514,515)"/>
<path d="M0 0 C0 0.33 0 0.66 0 1 C-1.30710937 1.09796875 -2.61421875 1.1959375 -3.9609375 1.296875 C-20.57610332 2.64311983 -35.80102516 5.20044248 -51.15625 11.828125 C-54 13 -54 13 -56 13 C-56 12.34 -56 11.68 -56 11 C-54.865625 10.54625 -53.73125 10.0925 -52.5625 9.625 C-48.95278308 8.42904194 -48.95278308 8.42904194 -48 6 C-47.01 6 -46.02 6 -45 6 C-45 5.34 -45 4.68 -45 4 C-29.84630761 0.84245589 -15.47525134 -0.59370892 0 0 Z " fill="#F6C326" transform="translate(436,96)"/>
<path d="M0 0 C0.66 0.66 1.32 1.32 2 2 C1.88202023 6.95515023 -0.11569032 10.1209703 -2.84375 14.0703125 C-4.04537408 16.07572566 -4.46404948 17.74103501 -5 20 C-6.21991283 22.41043016 -7.61501686 24.67680248 -9 27 C-9.66 27 -10.32 27 -11 27 C-11.103125 27.680625 -11.20625 28.36125 -11.3125 29.0625 C-12.14725019 32.62915989 -13.49472754 35.66222194 -15 39 C-15.99 39 -16.98 39 -18 39 C-16.51486965 34.14857417 -14.53531013 29.73241758 -12.3046875 25.1953125 C-11.77622726 24.1093428 -11.77622726 24.1093428 -11.23709106 23.00143433 C-10.1198625 20.70757882 -8.99752003 18.41626996 -7.875 16.125 C-7.11294109 14.56266588 -6.35121881 13.0001675 -5.58984375 11.4375 C-3.7304519 7.62308866 -1.86647202 3.81095153 0 0 Z " fill="#F0BB1B" transform="translate(514,198)"/>
<path d="M0 0 C0.66 0.66 1.32 1.32 2 2 C1.82490875 5.23918804 1.17820484 6.78021403 -0.875 9.3125 C-3.11953166 12.1511724 -4.05084036 14.50697556 -5.2109375 17.87890625 C-6.28357167 20.76227433 -7.68736262 23.42900585 -9.1328125 26.140625 C-10.03431076 28.07356721 -10.5489997 29.91987615 -11 32 C-11.66 32 -12.32 32 -13 32 C-13.11214844 32.54140625 -13.22429687 33.0828125 -13.33984375 33.640625 C-14.13997963 36.50028221 -15.3123815 39.05743708 -16.5625 41.75 C-17.01753906 42.73484375 -17.47257812 43.7196875 -17.94140625 44.734375 C-18.29074219 45.48203125 -18.64007813 46.2296875 -19 47 C-20.0995636 45.25489807 -20.0995636 45.25489807 -21 43 C-20.48796082 41.02061462 -20.48796082 41.02061462 -19.40698242 38.92163086 C-19.00964401 38.13078598 -18.6123056 37.3399411 -18.20292664 36.52513123 C-17.75826553 35.68023636 -17.31360443 34.83534149 -16.85546875 33.96484375 C-16.41108963 33.08977676 -15.96671051 32.21470978 -15.50886536 31.31312561 C-14.08325368 28.51336495 -12.63607549 25.72543775 -11.1875 22.9375 C-9.75447742 20.14371817 -8.32586345 17.34772181 -6.89826965 14.55116272 C-6.00768569 12.81059302 -5.11301864 11.07210531 -4.21391296 9.33592224 C-3.80711807 8.54822952 -3.40032318 7.7605368 -2.98120117 6.94897461 C-2.62209152 6.25710556 -2.26298187 5.56523651 -1.89299011 4.85240173 C-0.87951405 2.850387 -0.87951405 2.850387 0 0 Z " fill="#EDB71C" transform="translate(408,414)"/>
<path d="M0 0 C1.05078125 1.84375 1.05078125 1.84375 2 4 C1.1875 6.5 1.1875 6.5 0 9 C-0.12375 9.66 -0.2475 10.32 -0.375 11 C-1.26476322 13.84724231 -3.13988877 15.68895271 -5 18 C-5.69040574 19.65697379 -6.3530635 21.3255761 -7 23 C-8.25956341 25.2927347 -9.5596118 27.55755492 -10.87890625 29.81640625 C-12.08125827 31.92660306 -12.08125827 31.92660306 -12.46484375 34.15234375 C-13 36 -13 36 -16 38 C-17 35 -17 35 -16.09130859 32.63085938 C-15.3770874 31.25124023 -15.3770874 31.25124023 -14.6484375 29.84375 C-14.12636719 28.82023437 -13.60429687 27.79671875 -13.06640625 26.7421875 C-12.50824219 25.67226563 -11.95007813 24.60234375 -11.375 23.5 C-10.29748152 21.40727736 -9.22194776 19.31353158 -8.1484375 17.21875 C-7.62217773 16.19265625 -7.09591797 15.1665625 -6.55371094 14.109375 C-4.23381457 9.46666598 -2.09853449 4.74615212 0 0 Z " fill="#F1B91B" transform="translate(198,373)"/>
<path d="M0 0 C0.66 0 1.32 0 2 0 C-0.0132546 6.71091209 -2.71306257 12.82980409 -5.88671875 19.06640625 C-6.34859085 19.98590561 -6.81046295 20.90540497 -7.28633118 21.85276794 C-8.74772595 24.75890488 -10.21745376 27.66073141 -11.6875 30.5625 C-12.68610295 32.54464182 -13.6841553 34.52706114 -14.68164062 36.50976562 C-17.11473827 41.34306972 -19.55467242 46.17287293 -22 51 C-23.23593891 47.29218328 -22.5678132 46.32489747 -21.0625 42.8125 C-20.68222656 41.91144531 -20.30195312 41.01039063 -19.91015625 40.08203125 C-19.60980469 39.39496094 -19.30945312 38.70789063 -19 38 C-18.34 38 -17.68 38 -17 38 C-16.9175 36.96875 -16.835 35.9375 -16.75 34.875 C-15.92936019 30.63502767 -14.49077559 28.47199021 -12 25 C-11.31246699 23.34183216 -10.64438717 21.67540664 -10 20 C-9.54625 19.2575 -9.0925 18.515 -8.625 17.75 C-5.87345003 13.09353081 -3.70973128 8.12919384 -2 3 C-1.34 3 -0.68 3 0 3 C0 2.01 0 1.02 0 0 Z " fill="#F0C323" transform="translate(83,466)"/>
<path d="M0 0 C0.98765002 3.44687527 0.93269588 4.91743044 -0.58984375 8.203125 C-0.95843506 9.01152832 -1.32702637 9.81993164 -1.70678711 10.65283203 C-2.11292236 11.50989746 -2.51905762 12.36696289 -2.9375 13.25 C-3.34556885 14.13155762 -3.7536377 15.01311523 -4.17407227 15.92138672 C-6.861074 21.68792609 -9.61946199 27.42137054 -12.4375 33.125 C-12.7667749 33.79305664 -13.0960498 34.46111328 -13.43530273 35.14941406 C-14.76281773 37.78574179 -15.89838092 39.89838092 -18 42 C-18.78432205 39.71497383 -19.12940062 38.41413716 -18.39894104 36.07635498 C-18.05918747 35.41017151 -17.7194339 34.74398804 -17.36938477 34.05761719 C-16.98891495 33.29713074 -16.60844513 32.53664429 -16.21644592 31.75311279 C-15.79568283 30.94255432 -15.37491974 30.13199585 -14.94140625 29.296875 C-14.51826645 28.45908508 -14.09512665 27.62129517 -13.65916443 26.75811768 C-12.30476328 24.08290756 -10.93391553 21.41652132 -9.5625 18.75 C-8.64148261 16.93805644 -7.72154705 15.12556254 -6.80273438 13.3125 C-4.54766089 8.86851618 -2.2778008 4.43237475 0 0 Z " fill="#F1BB1E" transform="translate(553,119)"/>
<path d="M0 0 C0.66 0.33 1.32 0.66 2 1 C-2.52990747 13.21572203 -11.1522594 22.11753656 -22 29 C-22.66 29 -23.32 29 -24 29 C-22.52114586 25.43802875 -20.5447942 23.48328012 -17.625 21 C-15.26270925 18.97743668 -12.99281333 16.99252794 -10.8359375 14.75 C-9 13 -9 13 -7 13 C-7 12.01 -7 11.02 -7 10 C-6.01 10 -5.02 10 -4 10 C-3.896875 9.46375 -3.79375 8.9275 -3.6875 8.375 C-2.81907303 5.37497956 -1.44379704 2.7620465 0 0 Z " fill="#F4C11E" transform="translate(537,421)"/>
<path d="M0 0 C3.13927002 4.70890502 2.55128728 9.48712718 2 15 C0.31958069 21.13266428 -2.71018399 26.59530228 -6 32 C-7.171875 30.46875 -7.171875 30.46875 -8 28 C-7.20405913 25.3627034 -6.33583532 23.01244126 -5.25 20.5 C-2.49876044 13.73440243 -0.80128497 7.29445627 0 0 Z " fill="#EEB918" transform="translate(603,417)"/>
<path d="M0 0 C0.33 0 0.66 0 1 0 C0.65339436 5.48593063 0.1654446 9.37358097 -3 14 C-3.70696598 15.67101049 -4.4131438 17.34240182 -5.10546875 19.01953125 C-6.81780057 22.81058904 -8.93150525 26.39444196 -11 30 C-11.99 30 -12.98 30 -14 30 C-12.72808985 25.98381149 -11.25481537 22.21540255 -9.43359375 18.41796875 C-8.94826172 17.40412109 -8.46292969 16.39027344 -7.96289062 15.34570312 C-7.45951172 14.30349609 -6.95613281 13.26128906 -6.4375 12.1875 C-5.93025391 11.12595703 -5.42300781 10.06441406 -4.90039062 8.97070312 C-1.13585283 1.13585283 -1.13585283 1.13585283 0 0 Z " fill="#F4BE18" transform="translate(429,372)"/>
<path d="M0 0 C4.69282951 7.36643358 2.3294383 19.49408341 0.625 27.6875 C-0.29107683 31.62477969 -1.41330119 35.28160583 -3 39 C-4.25081832 35.36205658 -3.76739404 32.56566521 -3.125 28.8125 C-2.12755709 22.43288193 -1.62288941 16.13562897 -1.34228516 9.68676758 C-1.18695329 6.34476706 -1.00481154 3.20543186 0 0 Z " fill="#EDBB1D" transform="translate(543,383)"/>
<path d="M0 0 C0.99 0 1.98 0 3 0 C2.67 1.32 2.34 2.64 2 4 C1.34 4 0.68 4 0 4 C-0.12375 4.680625 -0.2475 5.36125 -0.375 6.0625 C-1.95865461 13.50567667 -4.19716961 19.92619159 -9 26 C-9.99 26 -10.98 26 -12 26 C-10.32067048 20.1899059 -7.60791608 14.99131421 -4.875 9.625 C-4.40707031 8.69816406 -3.93914062 7.77132813 -3.45703125 6.81640625 C-2.30830944 4.54240594 -1.15588119 2.27036718 0 0 Z " fill="#EEB81C" transform="translate(377,478)"/>
<path d="M0 0 C2.59056563 3.20025315 4.35152357 6.52238447 6.13671875 10.2265625 C6.42102249 10.81545258 6.70532623 11.40434265 6.99824524 12.01107788 C7.59446461 13.24887523 8.18852025 14.48771691 8.78051758 15.72753906 C9.68927027 17.62870351 10.60683185 19.52543233 11.52539062 21.421875 C12.10469611 22.62734988 12.68349029 23.83307063 13.26171875 25.0390625 C13.78725342 26.13428223 14.31278809 27.22950195 14.85424805 28.35791016 C16 31 16 31 16 33 C11.77917022 31.59305674 10.90540418 28.62850297 9 24.875 C8.65710938 24.22273438 8.31421875 23.57046875 7.9609375 22.8984375 C0 7.58426765 0 7.58426765 0 0 Z " fill="#ECBD1C" transform="translate(241,320)"/>
<path d="M0 0 C0.66 0 1.32 0 2 0 C0.66017669 4.3134396 -1.00410069 8.24341509 -3.0390625 12.2734375 C-3.61914062 13.42714844 -4.19921875 14.58085937 -4.796875 15.76953125 C-5.40616191 16.97139883 -6.01553802 18.17322119 -6.625 19.375 C-7.24255878 20.60007332 -7.85974982 21.8253321 -8.4765625 23.05078125 C-9.98077167 26.03569632 -11.48869122 29.01867503 -13 32 C-13.66 31.34 -14.32 30.68 -15 30 C-14.61121812 26.98694043 -13.73543126 25.60314689 -12 23 C-11.34 23 -10.68 23 -10 23 C-9.9175 22.360625 -9.835 21.72125 -9.75 21.0625 C-8.19147053 14.69850468 -4.97757774 8.80627659 -2 3 C-1.34 3 -0.68 3 0 3 C0 2.01 0 1.02 0 0 Z " fill="#EABE25" transform="translate(107,418)"/>
<path d="M0 0 C0.99 0 1.98 0 3 0 C0.79719166 7.27001933 -2.22486108 13.81147108 -5.6875 20.5625 C-6.19861328 21.57119141 -6.70972656 22.57988281 -7.23632812 23.61914062 C-8.48540841 26.08228026 -9.74003611 28.54241501 -11 31 C-12.23167552 27.30497344 -11.74513187 25.59767014 -10.1328125 22.140625 C-9.80023438 21.51671875 -9.46765625 20.8928125 -9.125 20.25 C-7.6511678 17.41896981 -6.50222393 14.65369869 -5.5 11.625 C-4 8 -4 8 -1.8125 6.5 C-1.214375 6.335 -0.61625 6.17 0 6 C0 4.02 0 2.04 0 0 Z " fill="#EBBD23" transform="translate(192,242)"/>
<path d="M0 0 C0.33 0 0.66 0 1 0 C1.82808784 7.78402571 -1.80274184 12.70411277 -6 19 C-6.66 19 -7.32 19 -8 19 C-7.9071875 20.1446875 -7.9071875 20.1446875 -7.8125 21.3125 C-8 24 -8 24 -9.5 25.8125 C-9.995 26.204375 -10.49 26.59625 -11 27 C-12.23513075 23.29460776 -11.64538104 22.63790021 -9.98046875 19.21875 C-9.53509766 18.29449219 -9.08972656 17.37023437 -8.63085938 16.41796875 C-8.15455078 15.45503906 -7.67824219 14.49210937 -7.1875 13.5 C-6.72279297 12.53707031 -6.25808594 11.57414062 -5.77929688 10.58203125 C-3.99400831 6.90899853 -2.26817174 3.40225761 0 0 Z " fill="#EEB71C" transform="translate(169,433)"/>
<path d="M0 0 C0.33 0 0.66 0 1 0 C1.34833144 4.87664009 0.41685712 7.77050005 -2 12 C-2.66 12 -3.32 12 -4 12 C-3.34 13.32 -2.68 14.64 -2 16 C-2.75827092 17.17487036 -3.53207755 18.33972592 -4.3125 19.5 C-4.74175781 20.1496875 -5.17101562 20.799375 -5.61328125 21.46875 C-6.07089844 21.9740625 -6.52851562 22.479375 -7 23 C-7.99 23 -8.98 23 -10 23 C-8.41980408 17.7936703 -6.22115005 13.01626689 -3.875 8.125 C-3.50246094 7.34125 -3.12992188 6.5575 -2.74609375 5.75 C-1.83381003 3.83186501 -0.91733016 1.91572671 0 0 Z " fill="#E8B11C" transform="translate(532,161)"/>
<path d="M0 0 C0.66 0.66 1.32 1.32 2 2 C1.74755439 6.54402094 -0.49880682 9.32177473 -3 13 C-3.57044234 14.21607936 -4.11264714 15.44582854 -4.625 16.6875 C-6 20 -6 20 -8 23 C-8.66 23 -9.32 23 -10 23 C-7.60292686 14.82175048 -3.91141228 7.53348722 0 0 Z " fill="#E5B017" transform="translate(180,410)"/>
<path d="M0 0 C0.66 0 1.32 0 2 0 C0.462002 5.0262409 -1.6122556 9.64763067 -3.875 14.375 C-4.21402344 15.09171875 -4.55304688 15.8084375 -4.90234375 16.546875 C-7.20488861 21.39710257 -9.58594703 26.20437011 -12 31 C-13.04248047 29.13378906 -13.04248047 29.13378906 -14 27 C-13.3203125 24.859375 -13.3203125 24.859375 -12.125 22.75 C-11.73570312 22.04359375 -11.34640625 21.3371875 -10.9453125 20.609375 C-10.63335937 20.07828125 -10.32140625 19.5471875 -10 19 C-9.34 19 -8.68 19 -8 19 C-7.7834375 17.8553125 -7.7834375 17.8553125 -7.5625 16.6875 C-7 14 -7 14 -6 11 C-5.34 11 -4.68 11 -4 11 C-4 9.68 -4 8.36 -4 7 C-3.34 7 -2.68 7 -2 7 C-2 5.68 -2 4.36 -2 3 C-1.34 3 -0.68 3 0 3 C0 2.01 0 1.02 0 0 Z " fill="#EEC324" transform="translate(178,273)"/>
<path d="M0 0 C0.66 0.33 1.32 0.66 2 1 C0.35441241 6.4615718 -1.99196402 11.48897936 -4.4375 16.625 C-4.83259766 17.470625 -5.22769531 18.31625 -5.63476562 19.1875 C-6.02212891 20.00476563 -6.40949219 20.82203125 -6.80859375 21.6640625 C-7.15720459 22.40092285 -7.50581543 23.1377832 -7.86499023 23.89697266 C-9.05978021 26.11076505 -10.44445697 28.02680356 -12 30 C-11.67 27.36 -11.34 24.72 -11 22 C-10.34 22 -9.68 22 -9 22 C-9 20.68 -9 19.36 -9 18 C-8.34 18 -7.68 18 -7 18 C-7 16.68 -7 15.36 -7 14 C-6.34 14 -5.68 14 -5 14 C-5 12.68 -5 11.36 -5 10 C-4.34 10 -3.68 10 -3 10 C-3 8.02 -3 6.04 -3 4 C-2.34 4 -1.68 4 -1 4 C-0.67 2.68 -0.34 1.36 0 0 Z " fill="#F0C225" transform="translate(453,180)"/>
<path d="M0 0 C14.78132118 0.59453303 14.78132118 0.59453303 21 4 C21 4.66 21 5.32 21 6 C14.29221378 5.22602467 7.65425699 4.14231412 1 3 C0.67 2.01 0.34 1.02 0 0 Z " fill="#E9BA20" transform="translate(496,272)"/>
<path d="M0 0 C0 0.66 0 1.32 0 2 C-1.06541016 2.30744141 -1.06541016 2.30744141 -2.15234375 2.62109375 C-3.53099609 3.02521484 -3.53099609 3.02521484 -4.9375 3.4375 C-6.31228516 3.83775391 -6.31228516 3.83775391 -7.71484375 4.24609375 C-9.9402493 4.79026051 -9.9402493 4.79026051 -11 6 C-12.76586914 6.02172852 -12.76586914 6.02172852 -15.03515625 5.87890625 C-15.84404297 5.83056641 -16.65292969 5.78222656 -17.48632812 5.73242188 C-18.7615332 5.64831055 -18.7615332 5.64831055 -20.0625 5.5625 C-20.91650391 5.51029297 -21.77050781 5.45808594 -22.65039062 5.40429688 C-24.76721995 5.27421239 -26.88365244 5.13770029 -29 5 C-29 4.67 -29 4.34 -29 4 C-27.78183594 3.87882813 -26.56367188 3.75765625 -25.30859375 3.6328125 C-23.68486171 3.46386928 -22.06116565 3.29458004 -20.4375 3.125 C-19.63763672 3.04636719 -18.83777344 2.96773437 -18.01367188 2.88671875 C-11.90029521 2.23795225 -6.0923639 0 0 0 Z " fill="#E8AF1C" transform="translate(514,515)"/>
<path d="M0 0 C0.66 0.99 1.32 1.98 2 3 C1.57847656 3.81984375 1.15695313 4.6396875 0.72265625 5.484375 C0.17480469 6.56203125 -0.37304688 7.6396875 -0.9375 8.75 C-1.48277344 9.81734375 -2.02804688 10.8846875 -2.58984375 11.984375 C-3.71216275 14.38445885 -4.50501659 16.41856752 -5 19 C-5.66 19 -6.32 19 -7 19 C-7.33 19.99 -7.66 20.98 -8 22 C-8.66 22 -9.32 22 -10 22 C-8.4719611 16.90117545 -6.28963144 12.34334341 -3.875 7.625 C-3.50246094 6.88894531 -3.12992188 6.15289062 -2.74609375 5.39453125 C-1.8343878 3.59449642 -0.91770068 1.79698598 0 0 Z " fill="#E8B21B" transform="translate(210,349)"/>
<path d="M0 0 C0.99 0 1.98 0 3 0 C1.39323547 5.45593671 -1.05030894 10.3302147 -3.625 15.375 C-4.04523438 16.20644531 -4.46546875 17.03789062 -4.8984375 17.89453125 C-5.92866075 19.93156359 -6.96258821 21.96662189 -8 24 C-8.33 24 -8.66 24 -9 24 C-8.67 21.36 -8.34 18.72 -8 16 C-7.34 16 -6.68 16 -6 16 C-5.896875 15.29875 -5.79375 14.5975 -5.6875 13.875 C-4.90640997 10.60862353 -3.57941257 7.9528148 -2 5 C-1.34 5 -0.68 5 0 5 C0 3.35 0 1.7 0 0 Z " fill="#EDC124" transform="translate(154,320)"/>
<path d="M0 0 C0.66 0 1.32 0 2 0 C0.33913088 5.56664924 -2.11071736 10.65786353 -4.625 15.875 C-5.04523438 16.75414062 -5.46546875 17.63328125 -5.8984375 18.5390625 C-6.9291692 20.69422878 -7.96309426 22.84779922 -9 25 C-9.66 23.68 -10.32 22.36 -11 21 C-10.34 21 -9.68 21 -9 21 C-8.7834375 19.8553125 -8.7834375 19.8553125 -8.5625 18.6875 C-8 16 -8 16 -7 13 C-6.34 13 -5.68 13 -5 13 C-4.7834375 11.576875 -4.7834375 11.576875 -4.5625 10.125 C-4 7 -4 7 -3 5 C-2.34 5 -1.68 5 -1 5 C-0.67 3.35 -0.34 1.7 0 0 Z " fill="#E7BB24" transform="translate(121,389)"/>
<path d="M0 0 C13.86 0 27.72 0 42 0 C41 4 41 4 39 6 C38.505 3.525 38.505 3.525 38 1 C25.46 1 12.92 1 0 1 C0 0.67 0 0.34 0 0 Z " fill="#FAC029" transform="translate(424,158)"/>
<path d="M0 0 C-0.92941406 0.51949219 -1.85882813 1.03898437 -2.81640625 1.57421875 C-9.10382594 5.11269637 -15.24950001 8.61866667 -21 13 C-21 12.01 -21 11.02 -21 10 C-20.34 10 -19.68 10 -19 10 C-18.773125 9.401875 -18.54625 8.80375 -18.3125 8.1875 C-16.63289954 5.38816589 -14.90894875 4.41899939 -12 3 C-11.01 3 -10.02 3 -9 3 C-8.67 2.01 -8.34 1.02 -8 0 C-4.99093136 -1.24513185 -3.0590674 -0.84653438 0 0 Z " fill="#EFB824" transform="translate(380,110)"/>
<path d="M0 0 C2.70241335 1.00987889 3.795196 1.61038969 5.16015625 4.20703125 C5.45792969 5.06683594 5.75570313 5.92664063 6.0625 6.8125 C7.41636295 10.49860342 8.87945623 13.68088801 11 17 C13.18606399 20.88633599 14.39600885 23.51189971 14 28 C12.14555251 25.21832876 10.67435155 22.47809084 9.1796875 19.4921875 C8.64472656 18.42355469 8.10976563 17.35492188 7.55859375 16.25390625 C7.00300781 15.13886719 6.44742187 14.02382813 5.875 12.875 C5.31167969 11.75222656 4.74835938 10.62945312 4.16796875 9.47265625 C3.63558594 8.40660156 3.10320312 7.34054687 2.5546875 6.2421875 C2.06468262 5.2610498 1.57467773 4.27991211 1.06982422 3.26904297 C0 1 0 1 0 0 Z " fill="#EDBF21" transform="translate(311,324)"/>
<path d="M0 0 C2.64 0 5.28 0 8 0 C8 0.66 8 1.32 8 2 C8.57492187 1.80019531 9.14984375 1.60039062 9.7421875 1.39453125 C12.51872687 0.90935742 13.64032338 1.41681937 16.125 2.6875 C16.80820312 3.02136719 17.49140625 3.35523438 18.1953125 3.69921875 C20.31467663 5.22681238 21.02300325 6.60786878 22 9 C17.15408121 7.42545856 12.38980736 5.67580423 7.625 3.875 C6.52091797 3.45927734 6.52091797 3.45927734 5.39453125 3.03515625 C3.59597461 2.35777777 1.7979339 1.67902967 0 1 C0 0.67 0 0.34 0 0 Z " fill="#ECB81C" transform="translate(517,278)"/>
<path d="M0 0 C3.21274829 3.80242994 5.14993856 8.15486922 7.25 12.625 C7.62640625 13.40101563 8.0028125 14.17703125 8.390625 14.9765625 C8.74125 15.7190625 9.091875 16.4615625 9.453125 17.2265625 C9.77442383 17.90283691 10.09572266 18.57911133 10.42675781 19.27587891 C11 21 11 21 10 23 C6.27844005 19.79175867 4.62088529 16.61952308 3 12 C2.8125 9.0625 2.8125 9.0625 3 7 C2.34 7 1.68 7 1 7 C1 5.68 1 4.36 1 3 C0.34 3 -0.32 3 -1 3 C-0.67 2.01 -0.34 1.02 0 0 Z " fill="#EDC01F" transform="translate(290,420)"/>
<path d="M0 0 C0.66 0 1.32 0 2 0 C1.45318976 5.00600922 -0.24140333 8.97181067 -2.5625 13.375 C-2.89185547 14.01566406 -3.22121094 14.65632812 -3.56054688 15.31640625 C-4.36639482 16.88138632 -5.18218493 18.44124021 -6 20 C-6.66 19.67 -7.32 19.34 -8 19 C-7.38188466 14.44684052 -5.53234107 10.71540233 -3.4375 6.6875 C-2.9434668 5.71973633 -2.9434668 5.71973633 -2.43945312 4.73242188 C-1.63175745 3.15214772 -0.81662387 1.57567895 0 0 Z " fill="#E9B31C" transform="translate(542,141)"/>
<path d="M0 0 C4.29 0.66 8.58 1.32 13 2 C13 2.33 13 2.66 13 3 C16.3 3.33 19.6 3.66 23 4 C23 4.33 23 4.66 23 5 C12.7544577 5.23950618 3.12589689 4.77203196 -7 3 C-7 2.67 -7 2.34 -7 2 C-3.535 1.505 -3.535 1.505 0 1 C0 0.67 0 0.34 0 0 Z " fill="#D7AA19" transform="translate(408,363)"/>
<path d="M0 0 C0.66 0.66 1.32 1.32 2 2 C1.87335454 7.31910951 -0.51760532 12.03449854 -4 16 C-4.99 16 -5.98 16 -7 16 C-5.35433477 10.31497465 -2.70967216 5.23318364 0 0 Z " fill="#E9B41A" transform="translate(514,198)"/>
<path d="M0 0 C-0.60328125 0.26554688 -1.2065625 0.53109375 -1.828125 0.8046875 C-2.62734375 1.15789062 -3.4265625 1.51109375 -4.25 1.875 C-5.03890625 2.22304687 -5.8278125 2.57109375 -6.640625 2.9296875 C-8.96713848 3.94977162 -8.96713848 3.94977162 -11 5.09375 C-13.30151847 6.13662556 -15.23940614 6.40347701 -17.75 6.625 C-18.54921875 6.69976562 -19.3484375 6.77453125 -20.171875 6.8515625 C-21.07679688 6.92503906 -21.07679688 6.92503906 -22 7 C-16.03507693 2.18217752 -7.77207807 -2.41797984 0 0 Z " fill="#E7B017" transform="translate(424,159)"/>
<path d="M0 0 C2.80592657 2.44493017 4.11593244 4.99579963 5.625 8.375 C6.05039062 9.31085938 6.47578125 10.24671875 6.9140625 11.2109375 C7.93003191 13.8202978 8.54887492 16.24312449 9 19 C6 18 6 18 4.39453125 14.98046875 C3.85586767 13.720927 3.32895087 12.4563114 2.8125 11.1875 C2.40354492 10.24293945 2.40354492 10.24293945 1.98632812 9.27929688 C0.57443549 5.907032 0 3.71644844 0 0 Z " fill="#F0BE1F" transform="translate(534,362)"/>
<path d="M0 0 C3 1 3 1 4.60546875 3.72265625 C5.12753906 4.82480469 5.64960938 5.92695313 6.1875 7.0625 C6.71730469 8.16722656 7.24710937 9.27195312 7.79296875 10.41015625 C8.19128906 11.26480469 8.58960938 12.11945313 9 13 C9.66 13 10.32 13 11 13 C11.33 14.65 11.66 16.3 12 18 C11.01 18.66 10.02 19.32 9 20 C6.03 13.4 3.06 6.8 0 0 Z " fill="#F4C31E" transform="translate(289,279)"/>
<path d="M0 0 C0.556875 0.226875 1.11375 0.45375 1.6875 0.6875 C1.3575 1.6775 1.0275 2.6675 0.6875 3.6875 C0.0275 3.6875 -0.6325 3.6875 -1.3125 3.6875 C-1.3125 4.3475 -1.3125 5.0075 -1.3125 5.6875 C-3.9525 6.3475 -6.5925 7.0075 -9.3125 7.6875 C-8.35178241 4.45599539 -7.61838515 2.92898827 -4.9375 0.8125 C-2.3125 -0.3125 -2.3125 -0.3125 0 0 Z " fill="#0F1110" transform="translate(450.3125,509.3125)"/>
<path d="M0 0 C0.99 0.33 1.98 0.66 3 1 C2.67 2.32 2.34 3.64 2 5 C2.66 5 3.32 5 4 5 C5.58444052 11.39014027 6.20287276 16.50448709 5 23 C4.67 23 4.34 23 4 23 C3.52047335 20.29172996 3.04136769 17.58338656 2.5625 14.875 C2.42779297 14.11445313 2.29308594 13.35390625 2.15429688 12.5703125 C1.41440873 8.38362839 0.69026923 4.19522853 0 0 Z " fill="#EABB1F" transform="translate(601,361)"/>
<path d="M0 0 C2.27339111 2.88185755 4.07542568 5.79708007 5.75 9.0625 C6.19859375 9.91972656 6.6471875 10.77695312 7.109375 11.66015625 C8 14 8 14 7 17 C3.66875017 14.77916678 3.22600502 13.7997906 1.8125 10.1875 C1.46832031 9.33542969 1.12414062 8.48335938 0.76953125 7.60546875 C-0.02080421 4.92956139 -0.14437811 2.77305541 0 0 Z " fill="#EABB1C" transform="translate(317,475)"/>
<path d="M0 0 C0.66 0 1.32 0 2 0 C-0.23313726 7.44379088 -3.40272079 14.11976695 -7 21 C-8.31573464 17.05279608 -7.28738053 15.7472445 -5.625 12 C-3.67280529 7.5540915 -3.67280529 7.5540915 -2 3 C-1.34 3 -0.68 3 0 3 C0 2.01 0 1.02 0 0 Z " fill="#E7B825" transform="translate(83,466)"/>
<path d="M0 0 C0.66 1.32 1.32 2.64 2 4 C0.625 7.75 0.625 7.75 -1 11 C-1.66 11 -2.32 11 -3 11 C-3.33 12.32 -3.66 13.64 -4 15 C-4.99 15 -5.98 15 -7 15 C-3.535 7.575 -3.535 7.575 0 0 Z " fill="#E8B21B" transform="translate(154,463)"/>
<path d="M0 0 C0.66 0.33 1.32 0.66 2 1 C0.35433477 6.68502535 -2.29032784 11.76681636 -5 17 C-5.33 17 -5.66 17 -6 17 C-6.29296875 10.9453125 -6.29296875 10.9453125 -6 9 C-5.01 8.34 -4.02 7.68 -3 7 C-1.92863949 4.69855891 -0.92010283 2.3659787 0 0 Z " fill="#E7BC21" transform="translate(163,303)"/>
<path d="M0 0 C4.29636669 3.43709335 5.02913663 6.83909473 6 12 C6.309375 13.485 6.309375 13.485 6.625 15 C6.74875 15.66 6.8725 16.32 7 17 C6.34 17.33 5.68 17.66 5 18 C4.15321949 16.13103445 3.32313789 14.25449819 2.5 12.375 C2.0359375 11.33085937 1.571875 10.28671875 1.09375 9.2109375 C-0.02767398 5.91875709 -0.207138 3.44884777 0 0 Z " fill="#F2C11A" transform="translate(376,226)"/>
<path d="M0 0 C2.29648357 2.89585905 4.04347557 5.8172031 5.6875 9.125 C6.12449219 9.99382812 6.56148438 10.86265625 7.01171875 11.7578125 C8 14 8 14 8 16 C3.75667588 14.25274889 2.63319887 12.14059758 0.75 8.109375 C-0.23720136 5.33287118 -0.29151293 2.91512932 0 0 Z " fill="#F6C520" transform="translate(277,394)"/>
<path d="M0 0 C5.94 0 11.88 0 18 0 C17.01 1.485 17.01 1.485 16 3 C13.3984375 3.29296875 13.3984375 3.29296875 10.375 3.1875 C8.87066406 3.14689453 8.87066406 3.14689453 7.3359375 3.10546875 C6.56507813 3.07066406 5.79421875 3.03585937 5 3 C5 2.34 5 1.68 5 1 C3.35 1 1.7 1 0 1 C0 0.67 0 0.34 0 0 Z " fill="#EBB217" transform="translate(339,519)"/>
<path d="M0 0 C0.33 0 0.66 0 1 0 C1.29254918 4.97333608 1.16504232 8.0436971 -2 12 C-4.1875 13.3125 -4.1875 13.3125 -6 14 C-4.50829734 9.0276578 -2.39542583 4.58154261 0 0 Z " fill="#EFB71B" transform="translate(521,184)"/>
<path d="M0 0 C2.27339111 2.88185755 4.07542568 5.79708007 5.75 9.0625 C6.19859375 9.91972656 6.6471875 10.77695312 7.109375 11.66015625 C8 14 8 14 7 17 C6.896875 16.360625 6.79375 15.72125 6.6875 15.0625 C6.460625 14.381875 6.23375 13.70125 6 13 C5.01 12.67 4.02 12.34 3 12 C0.87289789 7.9033589 -0.42160623 4.63766855 0 0 Z " fill="#F0C023" transform="translate(257,353)"/>
<path d="M0 0 C0.66 1.32 1.32 2.64 2 4 C1.34 4 0.68 4 0 4 C0.66 5.32 1.32 6.64 2 8 C0.35 9.98 -1.3 11.96 -3 14 C-3.66 13.67 -4.32 13.34 -5 13 C-3.58192622 8.52761347 -1.88695626 4.28853694 0 0 Z " fill="#F0B81D" transform="translate(146,479)"/>
<path d="M0 0 C0.99 0.33 1.98 0.66 3 1 C0.36 6.28 -2.28 11.56 -5 17 C-6.26724763 13.19825711 -5.4750819 11.6488868 -4 8 C-3.34 7.34 -2.68 6.68 -2 6 C-1.28591666 4.01643517 -0.61382258 2.01684563 0 0 Z " fill="#E9BE28" transform="translate(357,376)"/>
<path d="M0 0 C2.29648357 2.89585905 4.04347557 5.8172031 5.6875 9.125 C6.12449219 9.99382812 6.56148437 10.86265625 7.01171875 11.7578125 C8 14 8 14 8 16 C5 15 5 15 3.61328125 12.890625 C3.18402344 12.01921875 2.75476563 11.1478125 2.3125 10.25 C1.87550781 9.38890625 1.43851563 8.5278125 0.98828125 7.640625 C-0.04127438 4.88971748 -0.19360389 2.90929095 0 0 Z " fill="#F8C724" transform="translate(249,337)"/>
<path d="M0 0 C3.71080883 4.42442592 6.84577733 9.17403931 10 14 C9.01 14.33 8.02 14.66 7 15 C6.34 14.34 5.68 13.68 5 13 C5 11.68 5 10.36 5 9 C4.01 8.67 3.02 8.34 2 8 C0.04457812 5.01540871 0 3.73585209 0 0 Z " fill="#F0BE21" transform="translate(327,272)"/>
<path d="M0 0 C0.33 0 0.66 0 1 0 C1.65077296 2.04009755 2.29539824 4.08215669 2.9375 6.125 C3.29714844 7.26195312 3.65679687 8.39890625 4.02734375 9.5703125 C4.91898339 12.71432699 5.53351014 15.76894393 6 19 C5.34 19 4.68 19 4 19 C3.525625 17.88625 3.05125 16.7725 2.5625 15.625 C1.74693537 13.73289006 0.92143645 11.84287291 0 10 C-0.06996014 8.29297265 -0.08440154 6.58331997 -0.0625 4.875 C-0.05347656 3.96492187 -0.04445313 3.05484375 -0.03515625 2.1171875 C-0.02355469 1.41851562 -0.01195312 0.71984375 0 0 Z " fill="#E8BF21" transform="translate(315,240)"/>
<path d="M0 0 C3.89230769 4.95384615 3.89230769 4.95384615 5 8 C4.625 10.75 4.625 10.75 4 13 C1.25207517 9.59780735 -2 5.51535412 -2 1 C-1.34 0.67 -0.68 0.34 0 0 Z " fill="#F2C21B" transform="translate(285,265)"/>
<path d="M0 0 C2.42578125 0.77734375 2.42578125 0.77734375 5 2 C6.1875 5.5625 6.1875 5.5625 7 9 C7.66 9.33 8.32 9.66 9 10 C8.67 11.65 8.34 13.3 8 15 C5.51372483 11.9377256 3.90010596 8.8542946 2.3125 5.25 C1.87550781 4.26515625 1.43851562 3.2803125 0.98828125 2.265625 C0.66214844 1.51796875 0.33601563 0.7703125 0 0 Z " fill="#EDBF1E" transform="translate(274,249)"/>
<path d="M0 0 C3.40458262 3.89095157 6.24177968 8.11365765 8 13 C7.67 13.66 7.34 14.32 7 15 C6.34 14.67 5.68 14.34 5 14 C5 12.68 5 11.36 5 10 C4.34 10 3.68 10 3 10 C2.30289269 8.71349294 1.61757124 7.42059335 0.9375 6.125 C0.36322266 5.04605469 0.36322266 5.04605469 -0.22265625 3.9453125 C-0.47917969 3.30335938 -0.73570312 2.66140625 -1 2 C-0.67 1.34 -0.34 0.68 0 0 Z " fill="#E4B51E" transform="translate(309,460)"/>
<path d="M0 0 C0.66 0 1.32 0 2 0 C2 1.98 2 3.96 2 6 C2.99 5.67 3.98 5.34 5 5 C5 5.66 5 6.32 5 7 C5.66 7.33 6.32 7.66 7 8 C6.01 9.32 5.02 10.64 4 12 C1.03947516 8.63576723 0.07710178 5.30840713 -1 1 C-0.67 0.67 -0.34 0.34 0 0 Z " fill="#F0C324" transform="translate(344,387)"/>
<path d="M0 0 C0.66 0 1.32 0 2 0 C5.04157942 5.22771463 6.50610724 8.92671312 6 15 C4.19969878 12.29954818 3.06622934 9.93322119 1.875 6.9375 C1.52179687 6.05964844 1.16859375 5.18179687 0.8046875 4.27734375 C0 2 0 2 0 0 Z " fill="#ECBF23" transform="translate(595,345)"/>
<path d="M0 0 C1.1171875 1.734375 1.1171875 1.734375 2 4 C1.3203125 6.140625 1.3203125 6.140625 0.125 8.25 C-0.26429688 8.95640625 -0.65359375 9.6628125 -1.0546875 10.390625 C-1.36664063 10.92171875 -1.67859375 11.4528125 -2 12 C-2.99 12 -3.98 12 -5 12 C-3.68938409 7.76570244 -2.05643741 3.92592596 0 0 Z " fill="#E4B11C" transform="translate(414,402)"/>
<path d="M0 0 C0.66 0.33 1.32 0.66 2 1 C-1.465 8.425 -1.465 8.425 -5 16 C-6 12 -6 12 -5 9 C-4.34 9 -3.68 9 -3 9 C-3.33 7.68 -3.66 6.36 -4 5 C-3.01 4.67 -2.02 4.34 -1 4 C-0.26676204 1.98491642 -0.26676204 1.98491642 0 0 Z " fill="#E5B924" transform="translate(366,359)"/>
<path d="M0 0 C5.75 -0.125 5.75 -0.125 8 1 C8 1.99 8 2.98 8 4 C10.97 4.495 10.97 4.495 14 5 C14 5.99 14 6.98 14 8 C9.02790438 6.23570801 4.56561939 3.6060834 0 1 C0 0.67 0 0.34 0 0 Z " fill="#E6B322" transform="translate(539,287)"/>
<path d="M0 0 C5.94 0 11.88 0 18 0 C17.67 0.66 17.34 1.32 17 2 C15.906875 1.979375 14.81375 1.95875 13.6875 1.9375 C10.05615809 1.81455548 10.05615809 1.81455548 7 3 C4.64811553 2.40206327 2.31074405 1.74118205 0 1 C0 0.67 0 0.34 0 0 Z " fill="#FDBE10" transform="translate(437,520)"/>
<path d="M0 0 C0.66 0.33 1.32 0.66 2 1 C-0.64 6.28 -3.28 11.56 -6 17 C-7.13449939 12.46200244 -6.79049343 11.86506238 -4.6875 7.9375 C-4.23761719 7.08027344 -3.78773438 6.22304688 -3.32421875 5.33984375 C-2.29153166 3.51512526 -1.16302526 1.74453788 0 0 Z " fill="#E2B827" transform="translate(421,500)"/>
<path d="M0 0 C1.32 0 2.64 0 4 0 C2.68938409 4.23429756 1.05643741 8.07407404 -1 12 C-1.33 12 -1.66 12 -2 12 C-2.21278058 7.53160785 -1.59138085 4.17737474 0 0 Z " fill="#F3C421" transform="translate(437,462)"/>
<path d="M0 0 C0.66 0 1.32 0 2 0 C3.03544174 1.90881434 4.05290085 3.82739204 5.0625 5.75 C5.91521484 7.35101563 5.91521484 7.35101563 6.78515625 8.984375 C8.01044806 12.02593537 8.25348607 13.04893565 7 16 C5.82845707 13.71070947 4.66261926 11.41881638 3.5 9.125 C3.16613281 8.47402344 2.83226562 7.82304687 2.48828125 7.15234375 C0 2.2265625 0 2.2265625 0 0 Z " fill="#ECBC22" transform="translate(335,372)"/>
<path d="M0 0 C1.79458945 0.22807491 3.58575449 0.48322303 5.375 0.75 C6.87160156 0.95882813 6.87160156 0.95882813 8.3984375 1.171875 C11 2 11 2 12.3515625 4.078125 C12.56554687 4.71234375 12.77953125 5.3465625 13 6 C11.39253944 5.57476184 9.78910164 5.13429874 8.1875 4.6875 C7.29417969 4.44386719 6.40085937 4.20023437 5.48046875 3.94921875 C2.94752262 2.9799181 1.7283504 2.04990396 0 0 Z " fill="#DFB01E" transform="translate(372,355)"/>
<path d="M0 0 C4.67239145 2.13206212 8.59287819 4.02502456 12 8 C7.6305794 7.74297526 5.48177009 7.39976667 2.0625 4.5625 C0 2 0 2 0 0 Z " fill="#EFB81B" transform="translate(511,341)"/>
<path d="M0 0 C3.22695803 1.61347901 3.66223315 4.76706344 5 8 C5.99 9.485 5.99 9.485 7 11 C7.125 13.6875 7.125 13.6875 7 16 C3.04961337 11.25953605 0 6.21355834 0 0 Z " fill="#E8B724" transform="translate(304,307)"/>
<path d="M0 0 C-1 3 -1 3 -3.125 4.6875 C-6.60081696 6.274286 -9.22092373 6.2222986 -13 6 C-10.87838666 3.87838666 -9.2266841 3.07013751 -6.5 1.875 C-5.7059375 1.52179688 -4.911875 1.16859375 -4.09375 0.8046875 C-2 0 -2 0 0 0 Z " fill="#DFAC1B" transform="translate(540,505)"/>
<path d="M0 0 C0 3 0 3 -1.42578125 4.5 C-2.04839844 4.995 -2.67101562 5.49 -3.3125 6 C-5.67486744 7.90178008 -7.89016786 9.81875816 -10 12 C-10.66 11.34 -11.32 10.68 -12 10 C-8.04 6.7 -4.08 3.4 0 0 Z " fill="#E8B01E" transform="translate(567,485)"/>
<path d="M0 0 C0.66 0 1.32 0 2 0 C-0.89066059 9.59453303 -0.89066059 9.59453303 -4 13 C-4.33 11.35 -4.66 9.7 -5 8 C-4.01 8 -3.02 8 -2 8 C-1.855625 6.865625 -1.71125 5.73125 -1.5625 4.5625 C-1 1 -1 1 0 0 Z " fill="#E8BC23" transform="translate(433,474)"/>
<path d="M0 0 C2.97246802 2.54782974 4.41535288 5.45340883 6 9 C6 9.66 6 10.32 6 11 C5.01 11 4.02 11 3 11 C0 4.5 0 4.5 0 0 Z " fill="#E6B824" transform="translate(271,382)"/>
<path d="M0 0 C1.125 1.6875 1.125 1.6875 2 4 C1.375 6.6875 1.375 6.6875 0 9 C-2.125 9.8125 -2.125 9.8125 -4 10 C-2.8905928 6.51329166 -1.73662334 3.22515763 0 0 Z " fill="#E4AC16" transform="translate(227,314)"/>
<path d="M0 0 C0 4.05480631 -1.54870092 5.84832975 -4 9 C-4.99 9 -5.98 9 -7 9 C-5.52132701 3.33175355 -5.52132701 3.33175355 -2.9375 1.6875 C-2.298125 1.460625 -1.65875 1.23375 -1 1 C-0.67 0.67 -0.34 0.34 0 0 Z " fill="#F6C11B" transform="translate(529,175)"/>
<path d="M0 0 C2.74792483 3.40219265 6 7.48464588 6 12 C3 11 3 11 1.3125 8.25 C0.06049331 5.14979295 -0.28970125 3.28328088 0 0 Z " fill="#F6C821" transform="translate(325,492)"/>
<path d="M0 0 C1.37095624 3.69037278 0.60010967 5.70883835 -0.9375 9.25 C-1.31777344 10.14203125 -1.69804687 11.0340625 -2.08984375 11.953125 C-2.39019531 12.62859375 -2.69054687 13.3040625 -3 14 C-4.1484375 12.328125 -4.1484375 12.328125 -5 10 C-4.1015625 7.421875 -4.1015625 7.421875 -2.625 4.75 C-2.14289063 3.85796875 -1.66078125 2.9659375 -1.1640625 2.046875 C-0.77992188 1.37140625 -0.39578125 0.6959375 0 0 Z " fill="#E8B31E" transform="translate(386,459)"/>
<path d="M0 0 C4 2 4 2 5.08203125 4.05859375 C5.32308594 4.84363281 5.56414062 5.62867188 5.8125 6.4375 C6.06644531 7.21996094 6.32039063 8.00242188 6.58203125 8.80859375 C7 11 7 11 6 14 C4.02 9.38 2.04 4.76 0 0 Z " fill="#E9BC25" transform="translate(267,234)"/>
<path d="M0 0 C0.66 0.33 1.32 0.66 2 1 C0.68938409 5.23429756 -0.94356259 9.07407404 -3 13 C-3.98120464 9.94736336 -3.98120464 8.05263664 -3 5 C-2.34 5 -1.68 5 -1 5 C-0.67 3.35 -0.34 1.7 0 0 Z " fill="#E0B527" transform="translate(439,209)"/>
<path d="M0 0 C0.33 0.99 0.66 1.98 1 3 C0.34 3.66 -0.32 4.32 -1 5 C-1.71927295 7.31765729 -2.3909893 9.65095874 -3 12 C-3.33 12 -3.66 12 -4 12 C-4 9.36 -4 6.72 -4 4 C-3.34 4 -2.68 4 -2 4 C-2.33 3.01 -2.66 2.02 -3 1 C-2.01 0.67 -1.02 0.34 0 0 Z " fill="#FDC413" transform="translate(381,195)"/>
<path d="M0 0 C2.12577907 0.0868276 4.25069581 0.1949951 6.375 0.3125 C7.55835938 0.37050781 8.74171875 0.42851562 9.9609375 0.48828125 C10.96382813 0.65714844 11.96671875 0.82601563 13 1 C13.66 1.99 14.32 2.98 15 4 C9.76119922 3.44854729 5.02649303 2.57077907 0 1 C0 0.67 0 0.34 0 0 Z " fill="#D3A31A" transform="translate(386,361)"/>
<path d="M0 0 C0.66 0.33 1.32 0.66 2 1 C1.37344168 3.92393881 0.5838192 6.44829129 -1 9 C-1.99 9.33 -2.98 9.66 -4 10 C-2.8905928 6.51329166 -1.73662334 3.22515763 0 0 Z " fill="#E4B11A" transform="translate(137,498)"/>
<path d="M0 0 C1.64846769 0.44876616 3.29373455 0.90930488 4.9375 1.375 C5.85402344 1.63023437 6.77054687 1.88546875 7.71484375 2.1484375 C10 3 10 3 11 5 C5.25 5.125 5.25 5.125 3 4 C3 3.34 3 2.68 3 2 C1.68 1.67 0.36 1.34 -1 1 C-0.67 0.67 -0.34 0.34 0 0 Z " fill="#EDB41D" transform="translate(499,336)"/>
<path d="M0 0 C1.32 0 2.64 0 4 0 C4.66 2.97 5.32 5.94 6 9 C2.91910327 6.22719294 1.31224548 3.93673644 0 0 Z " fill="#F2C01C" transform="translate(382,244)"/>
<path d="M0 0 C0.99 0 1.98 0 3 0 C1.88333826 3.34998521 1.25305075 3.79340222 -1.5625 5.6875 C-2.20316406 6.12449219 -2.84382813 6.56148437 -3.50390625 7.01171875 C-3.99761719 7.33785156 -4.49132812 7.66398438 -5 8 C-5 5 -5 5 -4 3 C-3.01 3 -2.02 3 -1 3 C-0.67 2.01 -0.34 1.02 0 0 Z " fill="#EEB91A" transform="translate(354,123)"/>
<path d="M0 0 C0.66 0 1.32 0 2 0 C1.46930939 3.82097239 0.50298434 6.06171403 -2 9 C-2.6875 6.75 -2.6875 6.75 -3 4 C-1.6875 1.6875 -1.6875 1.6875 0 0 Z " fill="#F2C522" transform="translate(95,441)"/>
<path d="M0 0 C0.66 0.33 1.32 0.66 2 1 C0.35 4.3 -1.3 7.6 -3 11 C-3.33 11 -3.66 11 -4 11 C-3.67 8.36 -3.34 5.72 -3 3 C-2.01 2.67 -1.02 2.34 0 2 C0 1.34 0 0.68 0 0 Z " fill="#EBB820" transform="translate(141,349)"/>
<path d="M0 0 C0.66 0 1.32 0 2 0 C0.8905928 3.48670834 -0.26337666 6.77484237 -2 10 C-2.66 10 -3.32 10 -4 10 C-3.67 8.35 -3.34 6.7 -3 5 C-2.34 5 -1.68 5 -1 5 C-0.67 3.35 -0.34 1.7 0 0 Z " fill="#F0C422" transform="translate(121,389)"/>
<path d="M0 0 C1.32 0.33 2.64 0.66 4 1 C3.67 2.65 3.34 4.3 3 6 C2.01 6 1.02 6 0 6 C0 4.02 0 2.04 0 0 Z " fill="#101114" transform="translate(140,385)"/>
<path d="M0 0 C1.1875 1.625 1.1875 1.625 2 4 C0.625 7.25 0.625 7.25 -1 10 C-2.1875 8.375 -2.1875 8.375 -3 6 C-1.625 2.75 -1.625 2.75 0 0 Z " fill="#E5AE19" transform="translate(198,373)"/>
<path d="M0 0 C3 1 3 1 4.6875 3.25 C6.06511203 6.1364252 6.26985151 7.85173236 6 11 C3.13546142 7.58983503 1.65296434 4.09305456 0 0 Z " fill="#E9B822" transform="translate(589,334)"/>
<path d="M0 0 C2.64465038 3.1254959 3.84414715 6.08788267 5 10 C4.34 10.66 3.68 11.32 3 12 C2.67 9.69 2.34 7.38 2 5 C1.34 5 0.68 5 0 5 C0 3.35 0 1.7 0 0 Z " fill="#E4B81D" transform="translate(301,443)"/>
<path d="M0 0 C0.33 0 0.66 0 1 0 C0.75 3.375 0.75 3.375 0 7 C-2.0625 8.4375 -2.0625 8.4375 -4 9 C-3.52418802 7.68628013 -3.04424851 6.37405454 -2.5625 5.0625 C-2.29566406 4.33160156 -2.02882813 3.60070312 -1.75390625 2.84765625 C-1 1 -1 1 0 0 Z " fill="#E4AE1B" transform="translate(429,372)"/>
<path d="M0 0 C3.3 1.65 6.6 3.3 10 5 C5.23374833 6.19156292 4.12120649 5.3415946 0 3 C0 2.01 0 1.02 0 0 Z " fill="#ECB41E" transform="translate(371,317)"/>
<path d="M0 0 C2.6855594 2.6855594 3.06049974 5.37621328 4 9 C3.01 9 2.02 9 1 9 C-0.4783226 6.04335481 -0.06032783 3.25770263 0 0 Z " fill="#E9B81C" transform="translate(321,259)"/>
<path d="M0 0 C0.99 0.33 1.98 0.66 3 1 C1.68 2.65 0.36 4.3 -1 6 C-1.99 5.67 -2.98 5.34 -4 5 C-4 4.34 -4 3.68 -4 3 C-2.1875 1.3125 -2.1875 1.3125 0 0 Z " fill="#F4C21B" transform="translate(340,136)"/>
<path d="M0 0 C-0.5625 1.9375 -0.5625 1.9375 -2 4 C-5.625 4.75 -5.625 4.75 -9 5 C-2.87096774 0 -2.87096774 0 0 0 Z " fill="#E6AF1C" transform="translate(549,500)"/>
<path d="M0 0 C0.66 0.33 1.32 0.66 2 1 C0.83269511 4.95087809 -0.44837454 7.78425284 -3 11 C-2.69217504 9.35328588 -2.37860766 7.70764424 -2.0625 6.0625 C-1.88847656 5.14597656 -1.71445313 4.22945313 -1.53515625 3.28515625 C-1 1 -1 1 0 0 Z " fill="#F2C022" transform="translate(91,449)"/>
<path d="M0 0 C0.66 0 1.32 0 2 0 C0.84414715 3.91211733 -0.35534962 6.8745041 -3 10 C-3 8.02 -3 6.04 -3 4 C-2.01 3.67 -1.02 3.34 0 3 C0 2.01 0 1.02 0 0 Z " fill="#E7BA25" transform="translate(431,226)"/>
<path d="M0 0 C0.33 0 0.66 0 1 0 C1.20086443 3.71599191 1.1519437 4.77208445 -1 8 C-1.99 8 -2.98 8 -4 8 C-2.87548273 5.0280615 -1.77706209 2.66559313 0 0 Z " fill="#EAB51E" transform="translate(386,179)"/>
<path d="M0 0 C0.66 1.32 1.32 2.64 2 4 C0.02 6.97 0.02 6.97 -2 10 C-2.66 9.67 -3.32 9.34 -4 9 C-2.68 6.03 -1.36 3.06 0 0 Z " fill="#ECB51C" transform="translate(558,108)"/>
<path d="M0 0 C0.66 0.66 1.32 1.32 2 2 C1.875 4 1.875 4 1 6 C-1.0625 7.25 -1.0625 7.25 -3 8 C-1.125 2.25 -1.125 2.25 0 0 Z " fill="#DFAC1A" transform="translate(364,504)"/>
<path d="M0 0 C0.33 0 0.66 0 1 0 C1.36923077 5.41538462 1.36923077 5.41538462 -0.5 8.375 C-0.995 8.91125 -1.49 9.4475 -2 10 C-2.6875 8.375 -2.6875 8.375 -3 6 C-1.5625 2.75 -1.5625 2.75 0 0 Z " fill="#DDAB17" transform="translate(594,447)"/>
<path d="M0 0 C2.31 0.66 4.62 1.32 7 2 C7.33 3.32 7.66 4.64 8 6 C4.63408134 4.55746343 2.48952921 2.66735273 0 0 Z " fill="#EBB824" transform="translate(553,295)"/>
<path d="M0 0 C2.64 0 5.28 0 8 0 C8 0.66 8 1.32 8 2 C8.99 2.33 9.98 2.66 11 3 C9 4 9 4 6.8359375 3.44140625 C6.02382813 3.15136719 5.21171875 2.86132812 4.375 2.5625 C3.55773437 2.27503906 2.74046875 1.98757813 1.8984375 1.69140625 C1.27195312 1.46324219 0.64546875 1.23507812 0 1 C0 0.67 0 0.34 0 0 Z " fill="#DDAB1B" transform="translate(517,278)"/>
<path d="M0 0 C0.66 1.32 1.32 2.64 2 4 C0.68 5.32 -0.64 6.64 -2 8 C-2.125 5.125 -2.125 5.125 -2 2 C-1.34 1.34 -0.68 0.68 0 0 Z " fill="#F9C219" transform="translate(508,213)"/>
<path d="M0 0 C0.66 0 1.32 0 2 0 C1.46930939 3.82097239 0.50298434 6.06171403 -2 9 C-2.25 3.375 -2.25 3.375 0 0 Z " fill="#E5B823" transform="translate(425,490)"/>
<path d="M0 0 C-3.96 1.98 -3.96 1.98 -8 4 C-8 3.01 -8 2.02 -8 1 C-4.59449725 -1.06762667 -4.18836538 -1.04709135 0 0 Z " fill="#F0BD26" transform="translate(513,451)"/>
<path d="M0 0 C0.66 0.99 1.32 1.98 2 3 C1.125 5.6875 1.125 5.6875 0 8 C-0.99 8 -1.98 8 -3 8 C-1.125 2.25 -1.125 2.25 0 0 Z " fill="#E7B319" transform="translate(418,394)"/>
<path d="M0 0 C2.64752004 2.57784846 4.94432065 4.91648098 7 8 C5.35 7.67 3.7 7.34 2 7 C1.34 4.69 0.68 2.38 0 0 Z " fill="#E6B31E" transform="translate(337,287)"/>
<path d="M0 0 C2.31 0.33 4.62 0.66 7 1 C7.33 1.99 7.66 2.98 8 4 C6.68 4 5.36 4 4 4 C4 3.34 4 2.68 4 2 C2.68 1.67 1.36 1.34 0 1 C0 0.67 0 0.34 0 0 Z " fill="#F3BE1B" transform="translate(509,274)"/>
<path d="M0 0 C0.66 0.99 1.32 1.98 2 3 C0.515 5.475 0.515 5.475 -1 8 C-1.66 7.67 -2.32 7.34 -3 7 C-2.01 4.69 -1.02 2.38 0 0 Z " fill="#DFAA18" transform="translate(150,471)"/>
<path d="M0 0 C4 4.75 4 4.75 4 7 C3.01 7 2.02 7 1 7 C-0.0625 4.625 -0.0625 4.625 -1 2 C-0.67 1.34 -0.34 0.68 0 0 Z " fill="#EEBC16" transform="translate(309,460)"/>
<path d="M0 0 C0.66 0 1.32 0 2 0 C1.1875 2.9375 1.1875 2.9375 0 6 C-0.99 6.33 -1.98 6.66 -3 7 C-1.125 1.125 -1.125 1.125 0 0 Z " fill="#F2BC20" transform="translate(173,426)"/>
<path d="M0 0 C1.98 0.99 1.98 0.99 4 2 C4 3.98 4 5.96 4 8 C1.84622436 5.37801226 0.59927826 3.35595828 0 0 Z " fill="#E1B420" transform="translate(327,356)"/>
<path d="M0 0 C1.98 1.65 3.96 3.3 6 5 C4.68 5.33 3.36 5.66 2 6 C2 5.34 2 4.68 2 4 C1.34 4 0.68 4 0 4 C0 2.68 0 1.36 0 0 Z " fill="#EAB921" transform="translate(523,349)"/>
<path d="M0 0 C0.99 0 1.98 0 3 0 C1.25 5.75 1.25 5.75 -1 8 C-0.67 5.36 -0.34 2.72 0 0 Z " fill="#EEC028" transform="translate(196,234)"/>
</svg>
