<?xml version="1.0" encoding="UTF-8"?>
<svg version="1.1" xmlns="http://www.w3.org/2000/svg" width="308" height="308">
<path d="M0 0 C2.58225613 0.02145582 5.16172308 0.00004228 7.74389648 -0.02539062 C38.77835191 -0.07717501 70.50945177 10.57935963 95.14819336 29.52148438 C96.3412207 30.38386719 96.3412207 30.38386719 97.55834961 31.26367188 C110.44486752 40.94469535 122.09995039 53.20821058 131.14819336 66.52148438 C131.67155273 67.23820312 132.19491211 67.95492187 132.73413086 68.69335938 C141.61263557 81.18903267 147.63717029 95.94932816 152.14819336 110.52148438 C152.40793945 111.3598584 152.66768555 112.19823242 152.93530273 113.06201172 C164.28458469 151.84358766 157.64469337 195.3248453 138.71557617 230.4765625 C132.29849202 241.87138483 124.18151897 252.09671466 115.14819336 261.52148438 C113.86428711 262.91753906 113.86428711 262.91753906 112.55444336 264.34179688 C94.93326772 283.11648226 71.66521689 296.09985826 47.14819336 303.52148438 C45.8971582 303.90675293 45.8971582 303.90675293 44.62084961 304.29980469 C18.10245635 312.06590557 -14.49433204 311.63852736 -40.85180664 303.52148438 C-41.68325195 303.26979492 -42.51469727 303.01810547 -43.37133789 302.75878906 C-66.08171497 295.65061986 -86.32394236 283.4566775 -103.37524414 266.94677734 C-104.87456679 265.49951451 -106.3935777 264.07510908 -107.91430664 262.65039062 C-125.45447866 245.96352427 -138.05863578 223.65491222 -145.10180664 200.58398438 C-145.45299561 199.44195557 -145.45299561 199.44195557 -145.8112793 198.27685547 C-150.06510258 183.63089618 -151.43141409 169.63058908 -151.35180664 154.45898438 C-151.34916306 153.10894318 -151.34916306 153.10894318 -151.34646606 151.73162842 C-151.28438481 137.48832435 -150.27485464 124.15555727 -145.85180664 110.52148438 C-145.58948242 109.69116699 -145.3271582 108.86084961 -145.05688477 108.00537109 C-137.56960809 84.84778096 -124.93620888 59.85376326 -105.80883789 44.18945312 C-103.71759193 42.45185452 -103.71759193 42.45185452 -101.41430664 40.08398438 C-86.58538624 25.25506398 -67.38148042 14.58405683 -47.66430664 7.83398438 C-46.87644775 7.56046143 -46.08858887 7.28693848 -45.27685547 7.00512695 C-30.35329361 2.12016641 -15.67818944 -0.15404173 0 0 Z " fill="#FDC300" transform="translate(150.851806640625,-0.521484375)"/>
<path d="M0 0 C1.39389337 0.00374249 2.78778943 0.00658359 4.1816864 0.00857544 C7.80328987 0.01611487 11.42472607 0.0356766 15.04626465 0.0579834 C18.76063781 0.07865405 22.4750387 0.08762193 26.18945312 0.09765625 C33.44278357 0.1189345 40.69597749 0.15294897 47.94921875 0.1953125 C43.25634827 10.16251551 38.5619437 20.12133578 33.57421875 29.9453125 C29.04822195 38.91843047 24.67926291 47.9596652 20.38916016 57.04785156 C19.95265137 57.96920898 19.51614258 58.89056641 19.06640625 59.83984375 C18.48802002 61.06731323 18.48802002 61.06731323 17.89794922 62.31958008 C16.94921875 64.1953125 16.94921875 64.1953125 15.94921875 65.1953125 C13.73066611 65.28314792 11.50933379 65.30225859 9.2890625 65.29296875 C8.2923629 65.29084633 8.2923629 65.29084633 7.27552795 65.28868103 C5.14587976 65.28306768 3.01633536 65.27051304 0.88671875 65.2578125 C-0.55403494 65.25279921 -1.99479028 65.24823601 -3.43554688 65.24414062 C-6.97399227 65.23309395 -10.51237664 65.21582042 -14.05078125 65.1953125 C-12.24063298 59.34014017 -10.11304936 53.88787843 -7.30078125 48.4453125 C-6.78451172 47.42920898 -6.78451172 47.42920898 -6.2578125 46.39257812 C-2.96069352 39.93722979 0.46611632 33.55197444 3.94921875 27.1953125 C0.63549947 27.24788964 -2.67575036 27.34311503 -5.98828125 27.4453125 C-6.91447266 27.45949219 -7.84066406 27.47367188 -8.79492188 27.48828125 C-17.66907105 27.79965491 -24.99899775 30.37514847 -31.54296875 36.5234375 C-37.07270331 42.65485302 -37.69017859 48.64325683 -37.4375 56.78125 C-36.60191773 64.15800665 -33.77873425 69.42201834 -28.05078125 74.1953125 C-22.29007242 78.34302286 -18.31043116 79.33664493 -11.33984375 79.40625 C-9.76821955 79.43436318 -8.19660513 79.46302781 -6.625 79.4921875 C-4.16586052 79.53306771 -1.70689487 79.56997465 0.75244141 79.59667969 C19.5741769 79.81842672 35.5958341 82.85963983 50.33984375 95.515625 C60.42177446 105.8692245 67.04742141 119.78270605 67.13671875 134.3203125 C66.90393683 150.31063974 61.65379945 164.53902187 50.28125 176.0859375 C42.28146053 183.32192798 34.14061359 186.98813753 23.94921875 190.1953125 C22.95921875 190.5253125 21.96921875 190.8553125 20.94921875 191.1953125 C19.61393068 191.28075541 18.27477987 191.31305875 16.93676758 191.30883789 C16.13616409 191.30876236 15.33556061 191.30868683 14.51069641 191.30860901 C13.6512291 191.30344772 12.79176178 191.29828644 11.90625 191.29296875 C11.02265305 191.2915538 10.13905609 191.29013885 9.22868347 191.28868103 C6.40632747 191.28308319 3.58405078 191.27053111 0.76171875 191.2578125 C-1.15169156 191.25279722 -3.06510312 191.24823436 -4.97851562 191.24414062 C-9.66930139 191.23311447 -14.36002788 191.21585133 -19.05078125 191.1953125 C-18.54012939 187.5974801 -17.96752523 184.5251896 -16.30859375 181.28515625 C-15.96441406 180.60517578 -15.62023437 179.92519531 -15.265625 179.22460938 C-14.90597656 178.53431641 -14.54632813 177.84402344 -14.17578125 177.1328125 C-13.82386719 176.43865234 -13.47195312 175.74449219 -13.109375 175.02929688 C-12.42001109 173.68003999 -11.71358959 172.33933505 -10.98876953 171.00878906 C-9.92525629 169.05040008 -9.92525629 169.05040008 -8.98828125 166.23828125 C-6.54706487 163.66417607 -5.52209827 163.81338426 -2.04296875 163.59375 C-0.00414145 163.56181015 2.03519863 163.55501985 4.07421875 163.5703125 C14.88005857 163.5703125 23.12348692 162.72894528 31.22265625 155.09765625 C37.1614947 148.55418492 38.30777427 141.95880876 38.234375 133.37109375 C37.6244831 126.57873601 34.87100662 119.98038404 29.94921875 115.1953125 C22.69515553 109.76667 15.69197225 107.90953786 6.62890625 107.921875 C5.02473281 107.90157006 3.4205662 107.88071899 1.81640625 107.859375 C-0.67128297 107.83692822 -3.15869901 107.82035301 -5.64648438 107.81445312 C-23.40294657 107.74371025 -37.54983752 104.46279439 -50.86328125 91.8828125 C-61.35742891 80.77136204 -66.83081355 67.03247806 -66.57421875 51.81640625 C-65.9019515 37.27551457 -59.57510722 24.21848009 -49.05078125 14.1953125 C-34.13342925 1.93447524 -18.8265074 -0.14824192 0 0 Z " fill="#060707" transform="translate(208.05078125,43.8046875)"/>
<path d="M0 0 C10.23 0 20.46 0 31 0 C37.55157656 12.20975632 43.74039567 24.5511156 49.72583008 37.04516602 C53.95825747 45.87533058 58.28620896 54.65315419 62.71264648 63.38793945 C63.34408569 64.63837036 63.34408569 64.63837036 63.98828125 65.9140625 C64.35477783 66.6354541 64.72127441 67.3568457 65.09887695 68.10009766 C66 70 66 70 67 73 C67.66 73.33 68.32 73.66 69 74 C69.25523437 73.15179688 69.51046875 72.30359375 69.7734375 71.4296875 C71.08494484 67.76247907 72.74643123 64.53425443 74.625 61.125 C75.25664062 59.97257812 75.88828125 58.82015625 76.5390625 57.6328125 C77.02117187 56.76398438 77.50328125 55.89515625 78 55 C78.69222656 55.26554687 79.38445312 55.53109375 80.09765625 55.8046875 C88.39412016 58.7997219 96.26901715 60.09350451 105 61 C103.41919924 66.20832249 101.22576126 70.983532 98.875 75.875 C98.47249023 76.71796631 98.06998047 77.56093262 97.65527344 78.42944336 C94.26825847 85.49727219 90.78205486 92.51188924 87.25146484 99.50878906 C85.70741473 102.58243077 84.17598462 105.66225042 82.64453125 108.7421875 C81.74905935 110.54108416 80.85338732 112.33988103 79.9576416 114.13864136 C79.07182981 115.91875101 78.18776095 117.69972763 77.30371094 119.48071289 C76.76133789 120.56860107 76.21896484 121.65648926 75.66015625 122.77734375 C75.17168213 123.75952881 74.68320801 124.74171387 74.17993164 125.75366211 C73 128 73 128 72 129 C70.48071962 129.07179964 68.95832518 129.08392007 67.4375 129.0625 C66.61121094 129.05347656 65.78492188 129.04445312 64.93359375 129.03515625 C64.29550781 129.02355469 63.65742188 129.01195312 63 129 C62.443125 127.8140625 61.88625 126.628125 61.3125 125.40625 C56.74506993 115.70487909 52.08275931 106.06332812 47.25488281 96.48925781 C44.55920631 91.14195867 41.87069855 85.79107042 39.1875 80.4375 C38.88672546 79.83747162 38.58595093 79.23744324 38.27606201 78.61923218 C33.6285422 69.33928899 29.08240195 60.0143689 24.6394043 50.63452148 C21.83578579 44.71687792 18.95098237 38.84559151 16 33 C14.03643871 35.94534193 12.49394714 38.88255348 10.91015625 42.046875 C10.4599688 42.945271 10.4599688 42.945271 10.00068665 43.86181641 C9.01894305 45.82338063 8.0405295 47.78658159 7.0625 49.75 C6.72575256 50.4243811 6.38900513 51.09876221 6.04205322 51.7935791 C1.28846729 61.31540079 -3.36678961 70.87848256 -7.92651367 80.49487305 C-12.98239536 91.12732937 -18.27874222 101.63891971 -23.56982422 112.15576172 C-25.49056115 115.97559532 -27.4021187 119.79998054 -29.3125 123.625 C-30.199375 125.39875 -31.08625 127.1725 -32 129 C-41.9 129 -51.8 129 -62 129 C-61.21438936 125.07194679 -60.59006119 122.81253656 -58.85791016 119.39111328 C-58.41299225 118.50473175 -57.96807434 117.61835022 -57.50967407 116.70510864 C-57.02437225 115.75312592 -56.53907043 114.80114319 -56.0390625 113.8203125 C-55.53386078 112.81652557 -55.02865906 111.81273865 -54.50814819 110.77853394 C-52.88609092 107.55779753 -51.25602863 104.34120117 -49.625 101.125 C-47.50975553 96.94174657 -45.39816131 92.7566676 -43.2890625 88.5703125 C-42.76227905 87.52542664 -42.23549561 86.48054077 -41.69274902 85.4039917 C-37.67669512 77.41152311 -33.79578125 69.3603506 -29.95834351 61.28091431 C-25.52137464 51.95331838 -20.90125123 42.72214352 -16.25 33.5 C-10.65655266 22.40802442 -5.19728514 11.28394529 0 0 Z " fill="#060707" transform="translate(90,106)"/>
<path d="M0 0 C0.66 0 1.32 0 2 0 C2.52956299 1.11242065 2.52956299 1.11242065 3.06982422 2.24731445 C4.66916803 5.6035172 6.27204041 8.95802278 7.875 12.3125 C8.43058594 13.47974609 8.98617187 14.64699219 9.55859375 15.84960938 C10.09355469 16.96787109 10.62851563 18.08613281 11.1796875 19.23828125 C11.67194824 20.26993408 12.16420898 21.30158691 12.67138672 22.36450195 C13.99764832 25.12730352 13.99764832 25.12730352 16 28 C16.99 26.02 17.98 24.04 19 22 C19.66 22 20.32 22 21 22 C19.8905928 25.48670834 18.73662334 28.77484237 17 32 C14 31 14 31 12.69726562 28.87036133 C12.27123047 27.9502124 11.84519531 27.03006348 11.40625 26.08203125 C10.69662109 24.57092773 10.69662109 24.57092773 9.97265625 23.02929688 C9.24369141 21.43698242 9.24369141 21.43698242 8.5 19.8125 C7.53152647 17.73554814 6.56278415 15.6587216 5.59375 13.58203125 C5.14386719 12.6070166 4.69398438 11.63200195 4.23046875 10.62744141 C3.24463863 8.52238114 2.22472536 6.45030585 1.15625 4.38671875 C0 2 0 2 0 0 Z " fill="#ECBD16" transform="translate(142,148)"/>
<path d="M0 0 C1.29023718 3.87071154 0.39933574 4.94112355 -1.3125 8.5625 C-1.98732422 10.01849609 -1.98732422 10.01849609 -2.67578125 11.50390625 C-4 14 -4 14 -6 16 C-9.07275391 16.22705078 -9.07275391 16.22705078 -12.9765625 16.1953125 C-13.66181 16.1924826 -14.3470575 16.18965271 -15.05307007 16.18673706 C-17.24389027 16.17553281 -19.43430316 16.15042859 -21.625 16.125 C-23.1093691 16.11497048 -24.5937446 16.10584458 -26.078125 16.09765625 C-29.71888261 16.07559294 -33.35940156 16.04106176 -37 16 C-37 15.67 -37 15.34 -37 15 C-22.15 14.505 -22.15 14.505 -7 14 C-3.535 7.07 -3.535 7.07 0 0 Z " fill="#FEC310" transform="translate(231,94)"/>
<path d="M0 0 C0 0.33 0 0.66 0 1 C-0.77601563 1.07476562 -1.55203125 1.14953125 -2.3515625 1.2265625 C-11.49471807 2.33945256 -18.75432232 5.06877736 -27 9 C-27 8.01 -27 7.02 -27 6 C-25.02 5.67 -23.04 5.34 -21 5 C-21 4.34 -21 3.68 -21 3 C-13.92444501 -0.0017506 -7.62951555 -0.34855655 0 0 Z " fill="#E5B219" transform="translate(193,44)"/>
<path d="M0 0 C8.25 0 16.5 0 25 0 C25 0.33 25 0.66 25 1 C17.41 1.33 9.82 1.66 2 2 C1.01 3.98 0.02 5.96 -1 8 C-1.625 6.25 -1.625 6.25 -2 4 C-1.34 2.68 -0.68 1.36 0 0 Z " fill="#E7B61F" transform="translate(199,207)"/>
<path d="M0 0 C0.66 0 1.32 0 2 0 C0.24009216 5.91969002 -2.39694605 11.41634992 -5 17 C-5.33 17 -5.66 17 -6 17 C-6.34884724 12.10160332 -5.46792622 9.34104063 -3 5.125 C-2.443125 4.15820312 -1.88625 3.19140625 -1.3125 2.1953125 C-0.879375 1.47085938 -0.44625 0.74640625 0 0 Z " fill="#ECBB16" transform="translate(204,82)"/>
<path d="M0 0 C-1.36018991 3.11963955 -2.83260134 5.00834822 -5.4375 7.1875 C-6.33275391 7.95126953 -6.33275391 7.95126953 -7.24609375 8.73046875 C-9 10 -9 10 -12 11 C-12 10.34 -12 9.68 -12 9 C-11.34 9 -10.68 9 -10 9 C-9.79375 8.443125 -9.5875 7.88625 -9.375 7.3125 C-7.41177961 4.01072025 -4.06489071 0 0 0 Z " fill="#EBB715" transform="translate(242,195)"/>
<path d="M0 0 C0.66 0 1.32 0 2 0 C0.35433477 5.68502535 -2.29032784 10.76681636 -5 16 C-5.33 16 -5.66 16 -6 16 C-5.125 9.25 -5.125 9.25 -4 7 C-3.34 7 -2.68 7 -2 7 C-1.855625 6.21625 -1.71125 5.4325 -1.5625 4.625 C-1 2 -1 2 0 0 Z " fill="#E5B517" transform="translate(50,184)"/>
<path d="M0 0 C0.66 0.33 1.32 0.66 2 1 C-1.96 4.96 -5.92 8.92 -10 13 C-10 9.28115772 -9.1259934 8.63852271 -6.6875 5.9375 C-5.76517578 4.89916016 -5.76517578 4.89916016 -4.82421875 3.83984375 C-3 2 -3 2 0 0 Z " fill="#E7B213" transform="translate(183,74)"/>
<path d="M0 0 C0.66 0.99 1.32 1.98 2 3 C-1.63 6.96 -5.26 10.92 -9 15 C-9.66 14.67 -10.32 14.34 -11 14 C-10.45730469 13.40832031 -9.91460937 12.81664062 -9.35546875 12.20703125 C-8.64003906 11.41683594 -7.92460937 10.62664062 -7.1875 9.8125 C-6.47980469 9.03519531 -5.77210938 8.25789062 -5.04296875 7.45703125 C-3.06664371 5.08015085 -1.51417406 2.68921134 0 0 Z " fill="#EEB815" transform="translate(267,207)"/>
<path d="M0 0 C6.27 0 12.54 0 19 0 C19 0.33 19 0.66 19 1 C17.81921875 1.03738281 16.6384375 1.07476562 15.421875 1.11328125 C13.86455212 1.17895149 12.30726186 1.24539847 10.75 1.3125 C9.97269531 1.33505859 9.19539062 1.35761719 8.39453125 1.38085938 C4.06020907 1.58460956 1.21958895 1.77175624 -2 5 C-1.34 3.35 -0.68 1.7 0 0 Z " fill="#1D1006" transform="translate(201,208)"/>
<path d="M0 0 C0.33 0 0.66 0 1 0 C1.33452052 7.43378943 1.13902852 13.19877155 -2 20 C-2.33 20 -2.66 20 -3 20 C-2.125 13.25 -2.125 13.25 -1 11 C-0.7724985 9.12943209 -0.59037189 7.25314042 -0.4375 5.375 C-0.31181641 3.87066406 -0.31181641 3.87066406 -0.18359375 2.3359375 C-0.12300781 1.56507813 -0.06242188 0.79421875 0 0 Z " fill="#E0B219" transform="translate(246,174)"/>
<path d="M0 0 C1.305239 3.91571701 0.32239848 5.03892997 -1.4375 8.6875 C-1.91058594 9.68136719 -2.38367188 10.67523438 -2.87109375 11.69921875 C-3.42990234 12.83810547 -3.42990234 12.83810547 -4 14 C-4.99 14 -5.98 14 -7 14 C-4.69 9.38 -2.38 4.76 0 0 Z " fill="#EEB814" transform="translate(231,94)"/>
<path d="M0 0 C0.66 0.33 1.32 0.66 2 1 C0.02 4.96 -1.96 8.92 -4 13 C-5.06337251 8.74650995 -5.06328907 8.37494164 -3.125 4.8125 C-2.57199219 3.77029297 -2.57199219 3.77029297 -2.0078125 2.70703125 C-1 1 -1 1 0 0 Z " fill="#F1C115" transform="translate(35,215)"/>
<path d="M0 0 C0.99 0.99 1.98 1.98 3 3 C2.67 3.66 2.34 4.32 2 5 C1.34 5 0.68 5 0 5 C-0.99 6.98 -1.98 8.96 -3 11 C-3.66 10.67 -4.32 10.34 -5 10 C-3.35 6.7 -1.7 3.4 0 0 Z " fill="#E4B017" transform="translate(105,138)"/>
<path d="M0 0 C0.88336837 2.4667645 1.1312406 3.63859372 0.22265625 6.140625 C-0.16019531 6.83671875 -0.54304687 7.5328125 -0.9375 8.25 C-1.31777344 8.95640625 -1.69804687 9.6628125 -2.08984375 10.390625 C-2.39019531 10.92171875 -2.69054687 11.4528125 -3 12 C-3.66 12 -4.32 12 -5 12 C-3.68938409 7.76570244 -2.05643741 3.92592596 0 0 Z " fill="#DFAD16" transform="translate(242,71)"/>
<path d="M0 0 C0.66 0.33 1.32 0.66 2 1 C0.02 3.97 -1.96 6.94 -4 10 C-4.33 8.68 -4.66 7.36 -5 6 C-4.34 6 -3.68 6 -3 6 C-2.87625 5.38125 -2.7525 4.7625 -2.625 4.125 C-2 2 -2 2 0 0 Z " fill="#EBB917" transform="translate(153,62)"/>
<path d="M0 0 C0.66 0 1.32 0 2 0 C0.84414715 3.91211733 -0.35534962 6.8745041 -3 10 C-3.3636198 5.75776898 -2.5393228 3.41831915 0 0 Z " fill="#E3B516" transform="translate(74,135)"/>
</svg>
